<?xml version="1.0" encoding="utf-8"?>
<!-- Generator: Adobe Illustrator 18.0.0, SVG Export Plug-In . SVG Version: 6.00 Build 0)  -->
<!DOCTYPE svg PUBLIC "-//W3C//DTD SVG 1.1//EN" "http://www.w3.org/Graphics/SVG/1.1/DTD/svg11.dtd">
<svg version="1.1" id="Layer_1" xmlns="http://www.w3.org/2000/svg" xmlns:xlink="http://www.w3.org/1999/xlink" x="0px" y="0px"
	 viewBox="0 0 46.5 46.5" enable-background="new 0 0 46.5 46.5" xml:space="preserve">
<g>
	<defs>
		<rect id="SVGID_1_" x="-1" y="1" width="46.5" height="46.5"/>
	</defs>
	<clipPath id="SVGID_2_">
		<use xlink:href="#SVGID_1_"  overflow="visible"/>
	</clipPath>
	<path clip-path="url(#SVGID_2_)" fill="#165398" d="M44.5,24.3c0,6.7-3,13.1-8.3,17.3c-1,0.8-2,1.5-3,2.1c-0.6,0.4-1.3,0.7-2,1
		c-2.3,1-4.7,1.6-7.1,1.8c-0.6,0.1-1.2,0.1-1.8,0.1c-1.2,0-2.4-0.1-3.6-0.3c-0.4-0.1-0.8-0.1-1.3-0.2c-0.7-0.2-1.4-0.4-2.1-0.6
		c-2.9-1-5.5-2.5-7.8-4.5c-0.6-0.5-1.1-1.1-1.7-1.6C-2.5,30.1-1.8,16,7.3,7.8c9.1-8.2,23.2-7.5,31.4,1.6
		C42.5,13.4,44.5,18.7,44.5,24.3"/>
	<path clip-path="url(#SVGID_2_)" fill="#F7BCBF" d="M26.2,22.8c0,0-2.2,6.3-0.9,7.3c1.4,1-4.6,8.9-4.6,8.9L13.6,37l3.9-6.6
		c0,0,0.5-6.6,0.5-7.6C18,21.8,26.2,22.8,26.2,22.8"/>
	<g opacity="0.1" clip-path="url(#SVGID_2_)">
		<g>
			<defs>
				<rect id="SVGID_3_" x="13.6" y="22.4" width="12.6" height="16.6"/>
			</defs>
			<clipPath id="SVGID_4_">
				<use xlink:href="#SVGID_3_"  overflow="visible"/>
			</clipPath>
			<path clip-path="url(#SVGID_4_)" fill="#100E09" d="M26.2,22.8c0,0-2.2,6.3-0.9,7.3c1.4,1-4.6,8.9-4.6,8.9L13.6,37l3.9-6.6
				c0,0,0.5-6.6,0.5-7.6C18,21.8,26.2,22.8,26.2,22.8"/>
		</g>
	</g>
	<path clip-path="url(#SVGID_2_)" fill="#F7BCBF" d="M21.7,15.8c3.2,0,5.8,2.6,5.8,5.8c0,3.2-2.6,5.8-5.8,5.8
		c-3.2,0-5.8-2.6-5.8-5.8C15.9,18.4,18.5,15.8,21.7,15.8"/>
	<path clip-path="url(#SVGID_2_)" fill="#DBD6E9" d="M17.4,46c-0.7-0.2-1.4-0.4-2.1-0.6l1.1-7.6l0.3-2.4l1.8,0.7
		c0.2,0.1,0.5,0.2,0.8,0.3c0.5,0.2,1,0.2,1.5-0.1c1.7-0.8,2.7-3.8,2.7-3.8s0.1,0.9,0.2,2.3c0.2,2.5,0.4,6.9,0.5,11.7
		c-0.6,0.1-1.2,0.1-1.8,0.1c-1.2,0-2.4-0.1-3.6-0.3C18.2,46.2,17.8,46.1,17.4,46"/>
	<path clip-path="url(#SVGID_2_)" fill="#DBD6E9" d="M18.9,31.5l-0.5,4.5l-0.2,2.2L17.4,46c-0.7-0.2-1.4-0.4-2.1-0.6
		c-2.9-1-5.5-2.5-7.8-4.5L6.3,37c0-0.2,0-0.5,0.1-0.7c0,0,0,0,0,0c0-0.2,0.1-0.4,0.1-0.6c0,0,0,0,0,0c0.2-0.7,0.6-1.4,1.1-1.9
		c1.3-1.3,9.9-5.3,9.9-5.3l0.2,0.3L18.9,31.5z"/>
	<path clip-path="url(#SVGID_2_)" fill="#342F40" d="M21.6,13.4c1.3,0,2.7-0.1,3.8,0.6c0.5,0.3,0.9,0.8,1.3,1.3c1.1,1.3,2,3,1.6,4.7
		l-0.5-0.2c0,0.4,0.1,0.9,0.3,1.3c-0.1-0.2-0.3,0.1-0.2,0.3l0.5,1.7c-0.8-0.3-1.7,0.2-1.9,1c0,0.1,0,0.1,0,0.2
		c-0.1-1.9-0.3-4.1-1.8-5.2c-0.8-0.6-1.8-0.7-2.7-0.9c-0.9-0.1-1.8-0.3-2.6,0c-0.8,0.3-1.6,1.2-1.4,2c-0.4-0.1-0.8,0.1-1,0.5
		c-0.2,0.4-0.2,0.8-0.2,1.2c-0.4,0.3-0.9-0.3-1.1-0.8c-0.4-1.1-0.7-2.3-0.5-3.5c0.2-1.2,1.2-2.3,2.4-2.3c-0.1-0.2-0.2-0.4-0.2-0.6
		l1-0.1c-0.2,0-0.5-0.2-0.6-0.3C17.8,14.7,20.9,13.5,21.6,13.4"/>
	<path clip-path="url(#SVGID_2_)" fill="#DBD6E9" d="M35.1,35.7c-0.2,1.2-1,4.6-1.9,7.9c-0.6,0.4-1.3,0.7-2,1
		c-2.3,1-4.7,1.6-7.1,1.8c-0.6,0.1-1.2,0.1-1.8,0.1c-1.2,0-2.4-0.1-3.6-0.3c0.5-1.7,1.1-4.6,1.6-7.4c0.2-0.8,0.3-1.7,0.5-2.5
		c0.6-3.2,1.1-5.8,1.1-5.8s1.9-1.9,3.1-2.3c0.2-0.1,0.3-0.1,0.5-0.1c0.9,0.2,2.2,2.4,2.2,2.4s5.8,1.9,7.2,4.1
		C35,35,35.1,35.4,35.1,35.7"/>
	<path clip-path="url(#SVGID_2_)" fill="#DBD6E9" d="M10.5,35.7L10.2,43c-1-0.6-1.9-1.3-2.8-2.1c-0.6-0.5-1.1-1.1-1.7-1.6
		C6,38,6.3,36.9,6.4,36.3c0,0,0,0,0,0c0.1-0.3,0.1-0.5,0.1-0.6c0,0,0,0,0,0H10.5z"/>
	<path clip-path="url(#SVGID_2_)" fill="#DBD6E9" d="M36.3,41.6c-1,0.8-2,1.5-3,2.1c-0.6,0.4-1.3,0.7-2,1l-0.6-3.8l0.6-7.1l3.6,0.9
		l0.3,0.1L36.3,41.6z"/>
</g>
</svg>
