<?xml version="1.0" encoding="UTF-8"?>
<!DOCTYPE svg PUBLIC "-//W3C//DTD SVG 1.1//EN" "http://www.w3.org/Graphics/SVG/1.1/DTD/svg11.dtd">
<!-- Creator: CorelDRAW X7 -->
<svg xmlns="http://www.w3.org/2000/svg" xml:space="preserve" width="452px" height="93px" version="1.1" style="shape-rendering:geometricPrecision; text-rendering:geometricPrecision; image-rendering:optimizeQuality; fill-rule:evenodd; clip-rule:evenodd"
viewBox="0 0 6301 1291"
 xmlns:xlink="http://www.w3.org/1999/xlink">
 <defs>
  <style type="text/css">
   <![CDATA[
    .fil0 {fill:#FEFEFE;fill-rule:nonzero}
   ]]>
  </style>
 </defs>
 <g id="Layer_x0020_1">
  <metadata id="CorelCorpID_0Corel-Layer"/>
  <g id="_2869232356448">
   <g>
    <polygon class="fil0" points="1232,637 6289,637 6289,659 1232,659 "/>
    <path class="fil0" d="M1749 791l62 0c20,0 35,2 44,6 8,3 16,10 21,18 5,8 8,18 8,29 0,15 -4,28 -13,39 -8,11 -19,19 -31,23 -10,3 -26,4 -50,4l-34 0 -14 107 -23 0 30 -226zm20 22l-10 75 31 0c22,0 36,-2 44,-4 8,-3 15,-8 20,-16 5,-7 7,-15 7,-23 0,-7 -2,-14 -5,-19 -3,-5 -8,-8 -14,-10 -6,-2 -17,-3 -32,-3l-41 0zm298 204l-22 0 3 -25c-19,19 -41,29 -66,29 -23,0 -41,-7 -56,-22 -15,-14 -22,-33 -22,-56 0,-27 10,-50 29,-69 19,-19 41,-28 67,-28 14,0 26,3 36,8 11,6 20,15 27,28l4 -32 22 0 -22 167zm-83 -15c14,0 27,-4 38,-10 11,-7 20,-16 27,-28 7,-12 10,-26 10,-40 0,-17 -6,-31 -16,-42 -11,-11 -26,-16 -43,-16 -20,0 -38,7 -53,22 -14,15 -21,33 -21,54 0,18 5,32 16,43 11,11 25,17 42,17zm133 -152l22 0 44 123 71 -123 24 0 -132 228 -24 0 47 -81 -52 -147zm182 0l21 0 -3 21c6,-8 13,-14 21,-19 8,-4 17,-6 25,-6 6,0 13,1 19,4l-10 20c-5,-2 -10,-3 -13,-3 -8,0 -15,2 -23,7 -7,5 -13,13 -18,23 -4,10 -8,26 -11,49l-10 71 -21 0 23 -167zm179 -4c14,0 27,3 39,10 12,7 21,16 28,28 7,12 10,26 10,41 0,18 -4,34 -13,49 -8,15 -20,27 -34,35 -14,8 -31,12 -49,12 -22,0 -41,-7 -55,-22 -15,-15 -22,-33 -22,-56 0,-18 4,-34 13,-49 8,-15 20,-27 35,-35 14,-9 31,-13 48,-13zm-1 20c-13,0 -25,4 -37,10 -12,7 -21,16 -27,27 -7,12 -10,25 -10,39 0,17 6,32 17,43 10,11 25,16 42,16 13,0 25,-3 36,-9 11,-7 20,-16 26,-28 7,-12 10,-25 10,-39 0,-11 -2,-22 -7,-31 -5,-8 -12,-15 -21,-20 -8,-5 -18,-8 -29,-8zm136 -81l21 0 -31 232 -21 0 31 -232zm63 0l21 0 -31 232 -21 0 31 -232zm259 48l-21 5c-3,-9 -8,-17 -14,-22 -7,-6 -14,-9 -22,-9 -8,0 -15,3 -20,9 -5,6 -8,13 -8,23 0,8 3,17 9,26 3,6 11,15 25,27 14,12 23,24 29,35 5,10 8,21 8,31 0,11 -3,22 -9,32 -6,10 -14,18 -24,24 -11,6 -21,9 -33,9 -14,0 -27,-5 -37,-14 -11,-9 -19,-23 -23,-40l21 -7c3,13 8,23 16,30 7,6 16,10 25,10 11,0 21,-5 29,-13 8,-8 12,-18 12,-30 0,-9 -3,-17 -7,-25 -5,-9 -13,-19 -27,-30 -14,-13 -23,-23 -27,-30 -7,-11 -10,-23 -10,-35 0,-16 5,-28 15,-39 10,-10 23,-15 38,-15 12,0 23,4 33,12 10,8 17,20 22,36zm193 105l-149 0c0,20 5,35 16,46 10,12 24,18 42,18 12,0 23,-3 33,-8 10,-4 18,-11 25,-20l16 13c-8,10 -19,19 -32,25 -13,6 -27,9 -42,9 -27,0 -46,-8 -60,-24 -13,-16 -19,-35 -19,-55 0,-16 4,-32 13,-48 9,-15 21,-27 36,-35 14,-9 31,-13 48,-13 21,0 39,7 53,21 14,15 21,33 21,56 0,4 0,9 -1,15zm-20 -19c0,-16 -6,-29 -16,-38 -10,-10 -23,-15 -38,-15 -17,0 -31,5 -44,14 -13,10 -22,22 -27,39l125 0zm66 -69l21 0 -3 21c6,-8 13,-14 21,-19 8,-4 17,-6 25,-6 6,0 13,1 19,4l-10 20c-5,-2 -10,-3 -13,-3 -8,0 -15,2 -23,7 -7,5 -13,13 -18,23 -4,10 -8,26 -11,49l-10 71 -21 0 23 -167zm83 0l22 0 42 122 70 -122 24 0 -97 167 -4 0 -57 -167zm207 -69c5,0 9,2 12,5 4,4 6,8 6,12 0,5 -2,9 -6,13 -3,3 -7,5 -12,5 -4,0 -8,-2 -12,-5 -3,-4 -5,-8 -5,-13 0,-4 2,-8 5,-12 4,-3 8,-5 12,-5zm-17 69l21 0 -22 167 -21 0 22 -167zm223 36l-18 10c-12,-20 -31,-30 -57,-30 -15,0 -28,3 -40,10 -12,7 -22,16 -29,27 -7,12 -10,24 -10,38 0,11 2,22 8,31 5,10 12,17 21,22 9,5 20,7 33,7 13,0 25,-2 37,-7 12,-6 21,-12 27,-20l18 12c-11,12 -23,21 -36,27 -13,5 -28,8 -45,8 -27,0 -47,-7 -62,-21 -15,-15 -22,-34 -22,-58 0,-26 9,-49 29,-68 19,-19 43,-28 71,-28 17,0 32,3 45,10 13,8 23,17 30,30zm198 52l-149 0c0,20 5,35 16,46 10,12 24,18 42,18 12,0 23,-3 33,-8 10,-4 18,-11 25,-20l16 13c-8,10 -19,19 -32,25 -13,6 -27,9 -42,9 -27,0 -46,-8 -59,-24 -14,-16 -20,-35 -20,-55 0,-16 4,-32 13,-48 9,-15 21,-27 36,-35 15,-9 31,-13 48,-13 21,0 39,7 53,21 14,15 21,33 21,56 0,4 0,9 -1,15zm-20 -19c0,-16 -6,-29 -16,-38 -10,-10 -23,-15 -38,-15 -17,0 -31,5 -44,14 -13,10 -22,22 -27,39l125 0zm152 -50l-11 17c-10,-13 -21,-20 -34,-20 -7,0 -14,2 -19,7 -5,5 -8,10 -8,16 0,5 2,9 5,13 3,4 10,10 21,17 16,10 27,19 32,27 5,7 7,16 7,26 0,14 -4,26 -14,35 -10,9 -23,14 -38,14 -21,0 -39,-9 -53,-27l13 -16c13,15 26,23 41,23 8,0 15,-3 21,-9 7,-6 10,-12 10,-20 0,-6 -3,-12 -7,-18 -3,-4 -11,-10 -24,-18 -14,-10 -24,-18 -28,-24 -4,-7 -6,-14 -6,-21 0,-13 4,-23 14,-32 9,-9 21,-13 35,-13 8,0 16,1 23,5 7,3 14,9 20,18zm355 -78l0 226 -21 0 0 -156 -98 156 -6 0 -58 -161 -46 161 -23 0 65 -226 4 0 66 183 114 -183 3 0zm209 226l-22 0 3 -25c-19,19 -41,29 -66,29 -23,0 -41,-7 -56,-22 -14,-14 -22,-33 -22,-56 0,-27 10,-50 29,-69 19,-19 41,-28 67,-28 14,0 26,3 37,8 10,6 19,15 26,28l4 -32 22 0 -22 167zm-83 -15c14,0 27,-4 38,-10 11,-7 20,-16 27,-28 7,-12 10,-26 10,-40 0,-17 -6,-31 -16,-42 -11,-11 -25,-16 -43,-16 -20,0 -38,7 -52,22 -15,15 -22,33 -22,54 0,18 5,32 16,43 11,11 25,17 42,17zm298 15l-21 0 3 -26c-20,20 -42,30 -67,30 -23,0 -41,-7 -56,-22 -14,-14 -21,-33 -21,-56 0,-27 9,-50 28,-69 19,-19 41,-28 67,-28 14,0 26,3 36,8 11,6 20,15 28,28l13 -97 22 0 -32 232zm-82 -15c14,0 26,-4 38,-10 11,-7 20,-16 27,-28 6,-12 10,-26 10,-40 0,-17 -6,-31 -17,-42 -11,-11 -25,-16 -42,-16 -21,0 -39,7 -53,22 -15,15 -22,33 -22,54 0,18 5,32 16,43 11,11 25,17 43,17zm305 -64l-149 0c-1,20 4,35 15,46 11,12 25,18 42,18 12,0 23,-3 33,-8 10,-4 18,-11 25,-20l16 13c-8,10 -19,19 -32,25 -13,6 -27,9 -42,9 -26,0 -46,-8 -59,-24 -13,-16 -20,-35 -20,-55 0,-16 5,-32 13,-48 9,-15 21,-27 36,-35 15,-9 31,-13 48,-13 22,0 39,7 54,21 14,15 21,33 21,56 0,4 -1,9 -1,15zm-20 -19c-1,-16 -6,-29 -16,-38 -10,-10 -23,-15 -39,-15 -16,0 -31,5 -44,14 -12,10 -21,22 -27,39l126 0zm294 -128l-3 22 -101 0 -10 74 101 0 -3 21 -101 0 -12 88 102 0 -3 21 -125 0 31 -226 124 0zm178 226l-21 0 3 -25c-19,19 -41,29 -66,29 -23,0 -42,-7 -56,-22 -15,-14 -22,-33 -22,-56 0,-27 10,-50 29,-69 19,-19 41,-28 67,-28 14,0 26,3 36,8 11,6 20,15 27,28l4 -32 22 0 -23 167zm-82 -15c14,0 27,-4 38,-10 11,-7 20,-16 27,-28 6,-12 10,-26 10,-40 0,-17 -6,-31 -17,-42 -11,-11 -25,-16 -42,-16 -21,0 -38,7 -53,22 -14,15 -22,33 -22,54 0,18 6,32 17,43 11,11 25,17 42,17zm233 -133l-12 17c-10,-13 -21,-20 -34,-20 -7,0 -13,2 -19,7 -5,5 -8,10 -8,16 0,5 2,9 5,13 3,4 10,10 21,17 16,10 27,19 32,27 5,7 8,16 8,26 0,14 -5,26 -15,35 -10,9 -23,14 -38,14 -21,0 -38,-9 -53,-27l14 -16c12,15 25,23 40,23 8,0 15,-3 22,-9 6,-6 9,-12 9,-20 0,-6 -2,-12 -7,-18 -3,-4 -11,-10 -24,-18 -14,-10 -23,-18 -28,-24 -4,-7 -6,-14 -6,-21 0,-13 4,-23 14,-32 9,-9 21,-13 35,-13 9,0 16,1 23,5 7,3 14,9 21,18zm22 -19l22 0 44 123 71 -123 24 0 -132 228 -24 0 47 -81 -52 -147z"/>
    <g>
     <path class="fil0" d="M1326 461c9,0 18,-1 28,-3 10,-2 19,-4 29,-8l0 37c-6,2 -15,5 -27,7 -12,2 -25,3 -38,3 -13,0 -26,-1 -38,-5 -11,-3 -22,-9 -31,-16 -9,-8 -16,-18 -21,-30 -5,-12 -8,-27 -8,-44 0,-17 3,-32 8,-44 4,-13 11,-24 19,-32 8,-8 18,-15 29,-19 10,-4 21,-6 32,-6 12,0 23,2 33,5 10,4 19,10 26,17 7,8 13,18 17,30 4,12 6,26 6,43 0,6 0,12 0,16l-123 0c1,9 3,16 6,23 3,6 7,11 12,15 6,3 12,6 19,8 7,2 14,3 22,3zm-18 -124c-6,0 -11,1 -16,3 -4,2 -8,5 -11,8 -3,4 -6,8 -8,13 -2,5 -3,10 -4,16l74 0c0,-6 -1,-11 -3,-16 -1,-5 -3,-9 -6,-13 -3,-3 -7,-6 -11,-8 -4,-2 -9,-3 -15,-3zm202 56c-5,0 -9,0 -13,-1 -4,0 -8,0 -12,0l0 100 -47 0 0 -257 75 0c12,0 23,0 32,1 10,1 18,3 25,5 18,6 31,14 41,26 10,12 14,27 14,45 0,13 -2,24 -7,34 -6,10 -13,18 -23,25 -10,7 -22,12 -36,16 -15,4 -31,6 -49,6zm-25 -41c3,0 7,1 11,1 4,0 8,0 13,0 12,0 23,-1 32,-3 8,-2 15,-5 20,-9 6,-3 9,-8 12,-13 2,-5 3,-11 3,-17 0,-7 -1,-14 -5,-20 -3,-5 -9,-9 -18,-12 -4,-2 -10,-3 -17,-4 -6,-1 -14,-1 -24,-1l-27 0 0 78zm295 121l-1 0c-3,2 -6,5 -9,8 -4,3 -8,5 -13,8 -4,2 -9,4 -15,6 -6,1 -12,2 -18,2 -9,0 -18,-1 -25,-4 -8,-3 -15,-7 -20,-12 -6,-5 -10,-11 -13,-19 -3,-7 -5,-15 -5,-25 0,-10 2,-19 6,-27 3,-8 8,-14 15,-20 6,-5 14,-10 23,-12 10,-3 20,-5 31,-5 8,0 15,1 22,2 7,1 13,2 18,3l0 -7c0,-4 -1,-9 -2,-13 -2,-4 -4,-7 -7,-10 -4,-4 -8,-6 -13,-8 -5,-2 -12,-3 -19,-3 -10,0 -19,1 -28,3 -9,2 -20,5 -30,10l0 -36c9,-4 19,-7 30,-10 10,-2 21,-3 33,-3 13,0 25,2 36,5 10,3 18,8 25,14 7,6 12,13 16,21 3,7 5,16 5,26l0 70c0,12 0,23 0,32 0,9 1,17 1,23l-41 0 -2 -19zm-4 -60c-4,-1 -9,-2 -15,-3 -6,-1 -11,-1 -17,-1 -11,0 -20,2 -27,6 -6,5 -9,12 -9,21 0,4 0,8 2,11 1,3 3,6 6,8 2,2 5,3 9,4 3,1 6,2 10,2 5,0 9,-1 13,-2 4,-1 8,-3 12,-5 3,-1 6,-3 9,-6 3,-2 5,-4 7,-7l0 -28zm74 -107l49 0 28 67c10,26 18,45 22,57l1 0c3,-9 10,-27 20,-53l29 -71 50 0 -121 276 -45 0 43 -100 -76 -176zm337 36l-4 0c-14,0 -27,2 -37,6 -11,4 -19,11 -25,19l0 125 -46 0 0 -186 38 0 5 26 0 0c6,-10 13,-17 23,-23 9,-5 20,-8 34,-8 4,0 8,0 12,1l0 40zm158 57c0,-10 -2,-19 -4,-26 -2,-8 -5,-14 -9,-19 -5,-5 -9,-9 -15,-12 -6,-2 -12,-4 -19,-4 -7,0 -13,2 -19,4 -5,3 -10,7 -14,12 -5,5 -8,11 -10,19 -2,7 -4,16 -4,26 0,10 2,19 4,26 2,8 5,14 10,19 4,5 9,9 14,12 6,2 12,4 19,4 7,0 13,-2 19,-4 6,-3 10,-7 15,-12 4,-5 7,-11 9,-19 2,-7 4,-16 4,-26zm47 0c0,15 -2,28 -7,40 -4,12 -10,23 -18,31 -9,9 -18,16 -30,20 -12,5 -24,7 -39,7 -14,0 -28,-2 -39,-7 -12,-4 -22,-11 -30,-20 -8,-8 -14,-19 -18,-31 -5,-12 -7,-25 -7,-40 0,-15 2,-28 7,-40 4,-12 10,-22 18,-31 9,-9 19,-15 30,-20 12,-5 25,-7 39,-7 15,0 28,2 39,7 12,5 22,11 30,20 8,9 14,19 19,31 4,12 6,25 6,40zm42 93l0 -279 46 0 0 279 -46 0zm100 0l0 -279 46 0 0 279 -46 0zm318 -69c5,-20 12,-42 21,-65l44 -123 66 0 0 257 -47 0 0 -130c0,-19 1,-42 2,-67l-1 0c-2,7 -5,16 -8,25 -3,9 -6,18 -9,27l-54 145 -30 0 -53 -145c-4,-9 -7,-18 -10,-27 -3,-9 -5,-18 -7,-25l-2 0c1,24 2,46 2,67l0 130 -47 0 0 -257 66 0 44 122c8,21 15,43 21,66l2 0zm298 50l-1 0c-3,2 -6,5 -9,8 -4,3 -8,5 -13,8 -4,2 -10,4 -15,6 -6,1 -12,2 -19,2 -8,0 -17,-1 -24,-4 -8,-3 -15,-7 -20,-12 -6,-5 -10,-11 -13,-19 -3,-7 -5,-15 -5,-25 0,-10 2,-19 5,-27 4,-8 9,-14 16,-20 6,-5 14,-10 23,-12 9,-3 20,-5 31,-5 8,0 15,1 22,2 7,1 13,2 18,3l0 -7c0,-4 -1,-9 -2,-13 -2,-4 -4,-7 -7,-10 -4,-4 -8,-6 -13,-8 -6,-2 -12,-3 -20,-3 -9,0 -18,1 -27,3 -10,2 -20,5 -30,10l0 -36c9,-4 19,-7 29,-10 11,-2 22,-3 34,-3 13,0 25,2 35,5 11,3 19,8 26,14 7,6 12,13 16,21 3,7 5,16 5,26l0 70c0,12 0,23 0,32 0,9 1,17 1,23l-41 0 -2 -19zm-4 -60c-4,-1 -9,-2 -15,-3 -6,-1 -12,-1 -17,-1 -11,0 -20,2 -27,6 -6,5 -9,12 -9,21 0,4 0,8 2,11 1,3 3,6 6,8 2,2 5,3 8,4 4,1 7,2 11,2 5,0 9,-1 13,-2 4,-1 8,-3 11,-5 4,-1 7,-3 10,-6 3,-2 5,-4 7,-7l0 -28zm139 -81l0 0c3,-4 7,-8 11,-12 4,-4 8,-7 14,-10 5,-2 11,-5 17,-6 7,-2 13,-3 20,-3 7,0 14,1 20,2 7,2 12,4 18,8 5,3 10,7 14,12 4,5 7,12 9,19 2,4 2,8 3,13 0,5 0,10 0,16l0 121 -45 0 0 -114c0,-5 -1,-9 -1,-13 0,-3 -1,-6 -2,-9 -2,-6 -6,-10 -10,-13 -5,-2 -11,-4 -18,-4 -8,0 -17,2 -25,7 -8,4 -15,10 -22,18l0 128 -46 0 0 -186 38 0 5 26zm287 141l-1 0c-2,2 -5,5 -9,8 -4,3 -8,5 -12,8 -5,2 -10,4 -16,6 -6,1 -12,2 -18,2 -9,0 -17,-1 -25,-4 -8,-3 -14,-7 -20,-12 -6,-5 -10,-11 -13,-19 -3,-7 -5,-15 -5,-25 0,-10 2,-19 6,-27 3,-8 9,-14 15,-20 7,-5 14,-10 24,-12 9,-3 19,-5 30,-5 8,0 15,1 22,2 7,1 13,2 18,3l0 -7c0,-4 -1,-9 -2,-13 -2,-4 -4,-7 -7,-10 -3,-4 -8,-6 -13,-8 -5,-2 -12,-3 -19,-3 -10,0 -19,1 -28,3 -9,2 -19,5 -30,10l0 -36c9,-4 19,-7 30,-10 10,-2 21,-3 33,-3 13,0 25,2 36,5 10,3 19,8 25,14 7,6 12,13 16,21 3,7 5,16 5,26l0 70c0,12 0,23 0,32 1,9 1,17 1,23l-41 0 -2 -19zm-4 -60c-4,-1 -9,-2 -15,-3 -6,-1 -11,-1 -17,-1 -11,0 -20,2 -26,6 -7,5 -10,12 -10,21 0,4 1,8 2,11 2,3 3,6 6,8 2,2 5,3 9,4 3,1 7,2 10,2 5,0 9,-1 13,-2 5,-1 8,-3 12,-5 3,-1 6,-3 9,-6 3,-2 5,-4 7,-7l0 -28zm218 84c0,-2 0,-5 0,-9 1,-4 1,-7 1,-10l0 0c-3,2 -6,5 -10,7 -4,2 -8,4 -12,6 -5,2 -9,4 -15,5 -5,1 -10,1 -16,1 -10,0 -20,-2 -29,-5 -9,-4 -18,-9 -25,-17 -8,-8 -13,-17 -18,-29 -4,-12 -7,-27 -7,-43 0,-17 3,-32 7,-45 5,-12 11,-23 18,-31 8,-9 17,-15 27,-20 9,-4 20,-6 30,-6 11,0 22,2 30,7 9,5 17,11 22,19l1 0 2 -21 40 0 0 190c0,11 -1,20 -2,28 -2,8 -5,15 -8,21 -5,7 -10,13 -16,18 -7,6 -14,10 -22,13 -8,4 -17,7 -27,8 -10,2 -20,3 -31,3 -6,0 -12,0 -18,-1 -6,0 -12,-1 -17,-2 -5,-1 -10,-1 -14,-3 -4,-1 -8,-2 -11,-3l0 -37c9,3 17,5 27,6 9,2 19,2 29,2 21,0 36,-4 48,-11 11,-8 16,-20 16,-36l0 -5zm-40 -36c4,0 8,-1 13,-2 4,-1 8,-2 11,-4 3,-2 7,-4 9,-6 3,-2 5,-5 7,-7l0 -83c-4,-6 -11,-11 -18,-15 -7,-4 -15,-6 -23,-6 -3,0 -6,0 -9,1 -3,1 -6,2 -9,4 -3,2 -6,4 -9,7 -3,3 -6,7 -8,12 -2,4 -4,10 -5,16 -2,7 -2,14 -2,23 0,9 1,17 2,25 2,7 5,14 8,19 4,5 9,9 14,12 5,3 11,4 19,4zm232 0c9,0 19,-1 28,-3 10,-2 20,-4 30,-8l0 37c-6,2 -15,5 -28,7 -12,2 -25,3 -38,3 -13,0 -25,-1 -37,-5 -12,-3 -23,-9 -32,-16 -8,-8 -15,-18 -21,-30 -5,-12 -8,-27 -8,-44 0,-17 3,-32 8,-44 5,-13 11,-24 19,-32 9,-8 18,-15 29,-19 10,-4 21,-6 33,-6 12,0 22,2 32,5 10,4 19,10 26,17 8,8 13,18 17,30 4,12 6,26 6,43 0,6 0,12 0,16l-123 0c1,9 3,16 6,23 3,6 7,11 13,15 5,3 11,6 18,8 7,2 14,3 22,3zm-18 -124c-6,0 -11,1 -15,3 -5,2 -9,5 -12,8 -3,4 -6,8 -8,13 -2,5 -3,10 -4,16l74 0c0,-6 -1,-11 -2,-16 -2,-5 -4,-9 -7,-13 -3,-3 -6,-6 -11,-8 -4,-2 -9,-3 -15,-3zm365 42c0,-4 0,-8 0,-12 0,-3 -1,-6 -1,-9 -2,-5 -5,-10 -9,-13 -4,-4 -10,-6 -17,-6 -4,0 -8,1 -13,2 -4,1 -8,3 -12,5 -4,2 -8,5 -12,8 -4,3 -7,6 -10,10l0 128 -46 0 0 -113c0,-4 0,-8 -1,-12 0,-3 0,-6 -1,-9 -1,-5 -4,-10 -8,-13 -4,-4 -10,-6 -18,-6 -4,0 -8,1 -12,2 -4,1 -8,3 -13,5 -4,2 -8,5 -12,8 -3,3 -7,6 -10,10l0 128 -46 0 0 -186 38 0 4 26 1 0c3,-4 6,-8 10,-12 5,-4 9,-7 14,-10 6,-2 11,-5 18,-6 6,-2 13,-3 19,-3 13,0 24,3 34,8 10,6 17,14 22,26l1 0c4,-5 8,-10 12,-14 5,-4 9,-8 15,-11 5,-3 11,-5 17,-7 7,-1 13,-2 20,-2 14,0 25,3 34,8 9,6 16,13 21,23 1,2 2,5 3,8 1,3 2,6 2,10 1,3 1,7 2,12 0,4 0,9 0,15l0 115 -46 0 0 -113zm192 82c9,0 19,-1 28,-3 10,-2 20,-4 29,-8l0 37c-5,2 -15,5 -27,7 -12,2 -25,3 -38,3 -13,0 -26,-1 -37,-5 -12,-3 -23,-9 -32,-16 -9,-8 -16,-18 -21,-30 -5,-12 -8,-27 -8,-44 0,-17 3,-32 8,-44 5,-13 11,-24 19,-32 9,-8 18,-15 29,-19 10,-4 21,-6 33,-6 11,0 22,2 32,5 10,4 19,10 26,17 8,8 13,18 17,30 4,12 6,26 6,43 0,6 0,12 0,16l-123 0c1,9 3,16 6,23 3,6 7,11 13,15 5,3 11,6 18,8 7,2 14,3 22,3zm-18 -124c-6,0 -11,1 -15,3 -5,2 -9,5 -12,8 -3,4 -6,8 -8,13 -2,5 -3,10 -4,16l74 0c0,-6 -1,-11 -2,-16 -2,-5 -4,-9 -7,-13 -3,-3 -7,-6 -11,-8 -4,-2 -9,-3 -15,-3zm166 -5l1 0c3,-4 6,-8 10,-12 5,-4 9,-7 14,-10 6,-2 12,-5 18,-6 6,-2 13,-3 20,-3 7,0 14,1 20,2 6,2 12,4 18,8 5,3 9,7 13,12 5,5 8,12 10,19 1,4 2,8 3,13 0,5 0,10 0,16l0 121 -46 0 0 -114c0,-5 0,-9 0,-13 -1,-3 -1,-6 -2,-9 -3,-6 -6,-10 -11,-13 -4,-2 -10,-4 -17,-4 -9,0 -17,2 -25,7 -8,4 -16,10 -22,18l0 128 -46 0 0 -186 38 0 4 26zm292 160c-5,2 -12,3 -19,4 -7,1 -14,1 -20,1 -15,0 -28,-2 -38,-7 -10,-5 -17,-13 -21,-22 -3,-7 -5,-16 -5,-28l0 -97 -35 0 0 -37 35 0 0 -52 46 0 0 52 54 0 0 37 -54 0 0 91c0,7 1,13 3,16 4,6 12,9 23,9 5,0 11,0 16,-1 5,-1 10,-2 15,-3l0 37zm240 -74c0,-6 -2,-12 -5,-16 -3,-4 -8,-7 -13,-9 -6,-3 -12,-5 -19,-7 -7,-1 -14,-3 -22,-4 -10,-3 -19,-5 -28,-8 -9,-3 -17,-8 -24,-13 -7,-5 -13,-12 -17,-20 -4,-8 -6,-19 -6,-31 0,-14 2,-26 7,-36 5,-10 11,-18 20,-25 8,-6 17,-11 28,-15 11,-3 24,-5 38,-5 13,0 27,2 41,4 14,3 26,7 36,11l0 40c-13,-5 -26,-9 -39,-11 -12,-2 -23,-4 -34,-4 -16,0 -28,3 -36,9 -9,6 -13,14 -13,25 0,7 2,12 4,17 3,4 7,7 12,10 4,3 10,5 16,7 6,1 13,3 20,4 10,3 21,5 31,8 10,3 18,8 26,13 8,5 14,12 18,21 5,9 7,20 7,33 0,14 -2,26 -8,36 -5,11 -12,19 -22,26 -9,6 -20,11 -34,14 -13,4 -28,5 -44,5 -14,0 -28,-1 -42,-4 -13,-3 -24,-7 -33,-12l0 -39c12,5 25,9 37,12 12,2 24,3 37,3 8,0 15,0 22,-1 7,-2 14,-4 20,-7 5,-3 10,-7 13,-12 4,-5 6,-11 6,-19zm72 -112l49 0 28 67c10,26 18,45 22,57l1 0c3,-9 10,-27 20,-53l29 -71 50 0 -120 276 -46 0 43 -100 -76 -176zm309 132c0,-4 -2,-7 -4,-10 -2,-2 -5,-4 -9,-6 -3,-2 -8,-3 -13,-5 -4,-1 -9,-2 -15,-3 -6,-2 -13,-4 -19,-7 -6,-2 -12,-5 -16,-9 -5,-4 -9,-9 -12,-15 -2,-5 -4,-13 -4,-21 0,-11 2,-20 6,-27 4,-8 9,-14 15,-19 6,-5 14,-9 22,-11 9,-3 18,-4 27,-4 11,0 22,1 32,3 10,2 19,4 27,7l0 37c-4,-1 -8,-3 -13,-4 -5,-1 -9,-2 -14,-3 -5,-1 -10,-2 -15,-2 -4,-1 -9,-1 -13,-1 -6,0 -10,1 -14,2 -4,1 -7,2 -9,4 -2,1 -4,3 -5,6 -1,2 -1,4 -1,7 0,4 1,7 3,10 2,3 5,5 9,7 4,1 8,3 13,4 4,1 8,2 12,3 7,2 13,3 20,6 6,2 12,5 17,9 5,4 9,9 13,15 3,6 5,14 5,24 0,10 -2,20 -6,27 -4,8 -10,15 -17,20 -7,5 -16,9 -26,11 -10,3 -21,4 -33,4 -11,0 -22,-1 -31,-3 -10,-1 -18,-4 -24,-7l0 -36c10,3 19,6 28,7 8,1 16,2 24,2 5,0 11,0 15,-1 5,-1 10,-2 13,-4 4,-2 6,-4 8,-7 3,-3 4,-6 4,-10zm198 54c-5,2 -11,3 -18,4 -7,1 -14,1 -20,1 -16,0 -29,-2 -39,-7 -10,-5 -17,-13 -21,-22 -3,-7 -4,-16 -4,-28l0 -97 -35 0 0 -37 35 0 0 -52 46 0 0 52 54 0 0 37 -54 0 0 91c0,7 1,13 3,16 4,6 11,9 23,9 5,0 10,0 16,-1 5,-1 10,-2 14,-3l0 37z"/>
     <path class="fil0" d="M5908 461c9,0 19,-1 28,-3 10,-2 20,-4 29,-8l0 37c-5,2 -15,5 -27,7 -12,2 -25,3 -38,3 -13,0 -26,-1 -37,-5 -12,-3 -23,-9 -32,-16 -9,-8 -16,-18 -21,-30 -5,-12 -8,-27 -8,-44 0,-17 3,-32 8,-44 5,-13 11,-24 19,-32 9,-8 18,-15 29,-19 10,-4 21,-6 33,-6 11,0 22,2 32,5 10,4 19,10 26,17 8,8 13,18 17,30 4,12 6,26 6,43 0,6 0,12 0,16l-123 0c1,9 3,16 6,23 3,6 7,11 13,15 5,3 11,6 18,8 7,2 14,3 22,3zm-18 -124c-6,0 -11,1 -15,3 -5,2 -9,5 -12,8 -3,4 -6,8 -8,13 -2,5 -3,10 -4,16l74 0c0,-6 -1,-11 -2,-16 -2,-5 -4,-9 -7,-13 -3,-3 -7,-6 -11,-8 -4,-2 -9,-3 -15,-3zm365 42c0,-4 0,-8 0,-12 0,-3 -1,-6 -2,-9 -1,-5 -4,-10 -8,-13 -4,-4 -10,-6 -17,-6 -4,0 -8,1 -13,2 -4,1 -8,3 -12,5 -4,2 -8,5 -12,8 -4,3 -7,6 -10,10l0 128 -46 0 0 -113c0,-4 0,-8 -1,-12 0,-3 0,-6 -1,-9 -1,-5 -4,-10 -8,-13 -4,-4 -10,-6 -18,-6 -4,0 -8,1 -12,2 -4,1 -8,3 -13,5 -4,2 -8,5 -12,8 -3,3 -7,6 -10,10l0 128 -46 0 0 -186 38 0 4 26 1 0c3,-4 6,-8 10,-12 5,-4 9,-7 14,-10 6,-2 11,-5 18,-6 6,-2 12,-3 19,-3 13,0 24,3 34,8 10,6 17,14 22,26l1 0c4,-5 8,-10 12,-14 4,-4 9,-8 15,-11 5,-3 11,-5 17,-7 6,-1 13,-2 20,-2 14,0 25,3 34,8 9,6 16,13 21,23 1,2 2,5 3,8 1,3 2,6 2,10 1,3 1,7 2,12 0,4 0,9 0,15l0 115 -46 0 0 -113z"/>
    </g>
   </g>
   <g>
    <path class="fil0" d="M349 928l-107 -61c-98,-57 -167,-137 -209,-242 -53,-132 -42,-262 32,-390 76,-132 187,-209 331,-230 103,-16 207,6 313,66l-403 697 102 59 -59 101zm211 -797c-60,-18 -114,-23 -160,-15 -47,7 -91,26 -135,57 -44,30 -79,69 -105,115 -44,76 -58,155 -41,238 13,61 48,121 107,183l334 -578z"/>
    <path class="fil0" d="M834 144c98,56 168,137 209,241 53,132 43,263 -31,391 -77,132 -187,208 -332,230 -74,11 -148,2 -223,-25l-179 310 -85 -49 174 -303 403 -697 64 -98zm-207 543l0 0 -111 193c61,17 114,22 160,15 47,-8 92,-27 135,-57 44,-31 79,-69 105,-115 44,-77 58,-156 41,-239 -13,-61 -48,-121 -107,-183l-223 386z"/>
   </g>
  </g>
 </g>
</svg>
