<?xml version="1.0" encoding="UTF-8"?>
<!DOCTYPE svg PUBLIC "-//W3C//DTD SVG 1.1//EN" "http://www.w3.org/Graphics/SVG/1.1/DTD/svg11.dtd">
<!-- Creator: CorelDRAW X7 -->
<svg xmlns="http://www.w3.org/2000/svg" xml:space="preserve" width="89.2232mm" height="89.2232mm" version="1.1" style="shape-rendering:geometricPrecision; text-rendering:geometricPrecision; image-rendering:optimizeQuality; fill-rule:evenodd; clip-rule:evenodd"
viewBox="0 0 7833 7833"
 xmlns:xlink="http://www.w3.org/1999/xlink">
 <defs>
  <style type="text/css">
   <![CDATA[
    .fil0 {fill:none}
    .fil1 {fill:#145C9E;fill-rule:nonzero}
    .fil2 {fill:#666666;fill-rule:nonzero}
   ]]>
  </style>
 </defs>
 <g id="Layer_x0020_1">
  <metadata id="CorelCorpID_0Corel-Layer"/>
  <g id="_2869063608656">
   <rect class="fil0" width="7833" height="7833"/>
   <g>
    <g>
     <path class="fil1" d="M3363 3920l-314 -181c-286,-165 -490,-401 -611,-707 -155,-387 -125,-769 92,-1144 223,-387 547,-611 972,-673 300,-46 605,19 915,194l-1179 2042 297 171 -172 298zm619 -2337c-178,-50 -334,-65 -470,-44 -136,21 -268,77 -395,167 -128,90 -230,203 -308,337 -129,224 -169,456 -119,698 36,178 141,356 314,536l978 -1694z"/>
     <path class="fil1" d="M4784 1621c286,165 490,401 611,707 156,387 125,769 -91,1144 -223,387 -548,611 -972,674 -215,32 -432,8 -652,-72l-524 909 -251 -145 512 -887 1178 -2042 189 -288zm-607 1593l0 0 -325 563c177,50 334,65 469,44 137,-21 268,-77 396,-167 127,-90 230,-202 308,-337 129,-223 168,-456 118,-698 -36,-178 -141,-356 -313,-536l-653 1131z"/>
    </g>
    <g>
     <polygon class="fil1" points="408,6021 7426,6021 7426,6052 408,6052 "/>
     <path class="fil2" d="M1126 6235l85 0c28,0 48,2 61,7 12,6 22,14 29,26 7,11 11,25 11,41 0,20 -6,38 -17,54 -12,15 -27,25 -44,31 -13,4 -36,6 -69,6l-47 0 -20 148 -32 0 43 -313zm27 30l-14 104 44 0c29,0 49,-2 60,-6 11,-4 20,-11 27,-21 7,-10 11,-21 11,-33 0,-10 -3,-18 -7,-25 -5,-7 -12,-12 -20,-15 -8,-3 -23,-4 -45,-4l-56 0zm413 283l-30 0 4 -35c-27,27 -57,41 -92,41 -31,0 -57,-10 -77,-31 -21,-20 -31,-46 -31,-78 0,-37 14,-68 40,-95 26,-26 57,-39 93,-39 19,0 36,4 51,12 15,8 27,20 37,37l6 -44 30 0 -31 232zm-114 -21c19,0 36,-5 52,-14 16,-9 28,-22 37,-39 9,-17 14,-35 14,-55 0,-24 -8,-43 -23,-58 -15,-15 -34,-23 -59,-23 -28,0 -52,10 -73,31 -20,20 -30,46 -30,76 0,24 8,44 23,59 15,15 35,23 59,23zm184 -211l31 0 60 171 99 -171 34 0 -185 317 -33 0 66 -113 -72 -204zm252 0l30 0 -4 29c8,-11 17,-19 29,-25 11,-6 22,-9 34,-9 9,0 18,1 27,5l-14 28c-8,-3 -14,-5 -19,-5 -10,0 -21,4 -31,11 -10,7 -18,18 -25,32 -6,13 -11,36 -16,68l-13 98 -29 0 31 -232zm249 -5c19,0 38,4 54,14 16,9 29,22 39,39 9,17 14,36 14,57 0,24 -6,47 -18,68 -12,20 -28,36 -48,48 -20,11 -42,17 -67,17 -32,0 -57,-10 -77,-31 -21,-20 -31,-46 -31,-77 0,-25 6,-48 18,-69 12,-21 28,-37 49,-49 20,-12 43,-17 67,-17zm-1 28c-18,0 -36,4 -52,14 -17,9 -29,22 -38,38 -9,16 -13,33 -13,53 0,24 8,44 23,59 15,16 34,23 58,23 19,0 36,-4 51,-13 15,-9 27,-22 36,-38 9,-17 14,-35 14,-54 0,-16 -4,-31 -10,-43 -7,-12 -17,-22 -29,-29 -12,-7 -25,-10 -40,-10zm188 -112l29 0 -43 321 -29 0 43 -321zm87 0l30 0 -44 321 -29 0 43 -321zm360 66l-30 7c-4,-13 -10,-24 -19,-31 -9,-8 -19,-12 -29,-12 -12,0 -22,4 -29,12 -7,8 -11,18 -11,32 0,11 4,23 12,36 5,8 16,20 35,37 19,17 32,34 40,49 8,15 11,29 11,44 0,15 -4,29 -12,44 -8,14 -20,25 -34,33 -14,8 -29,12 -45,12 -20,0 -37,-6 -52,-19 -15,-13 -25,-31 -32,-56l29 -10c5,19 12,33 23,42 10,9 22,14 35,14 15,0 29,-6 40,-17 11,-12 16,-25 16,-42 0,-12 -3,-24 -9,-36 -6,-11 -19,-25 -37,-41 -19,-18 -32,-31 -38,-41 -9,-15 -14,-32 -14,-49 0,-22 7,-39 21,-53 14,-14 31,-21 52,-21 18,0 33,5 47,16 14,11 24,28 30,50zm268 145l-207 0c0,28 7,49 22,65 14,16 34,24 59,24 16,0 31,-4 45,-10 14,-7 25,-16 34,-28l23 18c-11,14 -26,25 -44,34 -18,8 -38,13 -59,13 -37,0 -64,-11 -82,-34 -18,-22 -28,-48 -28,-76 0,-23 7,-45 19,-66 12,-21 29,-38 49,-50 21,-12 43,-17 67,-17 30,0 55,10 74,30 20,20 29,45 29,76 0,6 0,13 -1,21zm-27 -26c-1,-22 -9,-39 -23,-53 -14,-13 -31,-20 -53,-20 -23,0 -43,6 -61,19 -18,13 -30,31 -38,54l175 0zm90 -96l30 0 -4 29c8,-11 18,-19 29,-25 11,-6 23,-9 35,-9 8,0 17,1 26,5l-14 28c-7,-3 -14,-5 -19,-5 -10,0 -20,4 -31,11 -10,7 -18,18 -24,32 -7,13 -12,36 -16,68l-14 98 -29 0 31 -232zm116 0l30 0 59 170 97 -170 33 0 -134 232 -5 0 -80 -232zm288 -95c6,0 12,2 17,7 4,5 7,10 7,17 0,6 -3,12 -7,17 -5,4 -11,7 -17,7 -7,0 -13,-3 -17,-7 -5,-5 -7,-11 -7,-17 0,-7 2,-12 7,-17 4,-5 10,-7 17,-7zm-24 95l28 0 -30 232 -29 0 31 -232zm309 51l-25 14c-17,-28 -43,-42 -79,-42 -20,0 -39,4 -56,13 -17,10 -30,22 -40,38 -9,17 -14,34 -14,52 0,17 4,31 11,44 7,13 17,23 30,30 13,7 28,10 45,10 18,0 35,-3 52,-10 16,-7 29,-17 38,-28l24 17c-15,17 -32,29 -50,37 -18,8 -39,12 -62,12 -37,0 -66,-10 -86,-30 -21,-20 -31,-47 -31,-80 0,-37 13,-68 40,-94 27,-26 60,-39 99,-39 24,0 45,4 63,14 17,10 31,24 41,42zm275 71l-207 0c0,28 7,49 22,65 15,16 34,24 59,24 16,0 31,-4 45,-10 14,-7 25,-16 35,-28l22 18c-11,14 -26,25 -44,34 -18,8 -38,13 -59,13 -36,0 -64,-11 -82,-34 -18,-22 -27,-48 -27,-76 0,-23 6,-45 18,-66 12,-21 29,-38 50,-50 20,-12 42,-17 67,-17 29,0 54,10 73,30 20,20 30,45 30,76 0,6 -1,13 -2,21zm-27 -26c-1,-22 -9,-39 -23,-53 -14,-13 -31,-20 -53,-20 -23,0 -43,6 -61,19 -18,13 -30,31 -38,54l175 0zm211 -70l-16 24c-14,-18 -29,-28 -47,-28 -10,0 -19,4 -26,10 -8,7 -11,15 -11,23 0,6 2,12 6,18 5,5 14,13 30,23 22,14 36,26 44,37 7,11 10,23 10,37 0,20 -7,36 -20,49 -14,12 -32,19 -53,19 -29,0 -53,-13 -73,-38l18 -22c17,21 36,32 56,32 12,0 22,-4 30,-12 9,-8 13,-18 13,-28 0,-9 -3,-17 -9,-25 -4,-5 -16,-14 -34,-26 -19,-13 -32,-24 -38,-33 -6,-9 -9,-18 -9,-29 0,-18 6,-32 19,-44 13,-12 30,-18 49,-18 12,0 23,2 32,7 9,4 19,13 29,24zm492 -107l0 313 -29 0 0 -216 -136 216 -8 0 -81 -224 -65 224 -31 0 90 -313 5 0 92 254 158 -254 5 0zm289 313l-30 0 5 -35c-27,27 -58,41 -92,41 -32,0 -57,-10 -78,-31 -20,-20 -30,-46 -30,-78 0,-37 13,-68 40,-95 26,-26 57,-39 93,-39 19,0 36,4 51,12 14,8 26,20 36,37l6 -44 31 0 -32 232zm-114 -21c19,0 37,-5 53,-14 15,-9 28,-22 37,-39 9,-17 14,-35 14,-55 0,-24 -8,-43 -23,-58 -15,-15 -35,-23 -59,-23 -28,0 -53,10 -73,31 -20,20 -30,46 -30,76 0,24 7,44 22,59 16,15 35,23 59,23zm414 21l-31 0 5 -36c-27,28 -58,42 -93,42 -31,0 -57,-10 -77,-31 -20,-20 -30,-46 -30,-78 0,-37 13,-68 39,-95 27,-26 58,-39 93,-39 19,0 36,4 51,12 14,8 27,20 38,37l17 -133 31 0 -43 321zm-115 -21c19,0 37,-5 53,-14 15,-9 28,-22 37,-39 9,-17 14,-35 14,-55 0,-24 -8,-43 -23,-58 -15,-15 -35,-23 -59,-23 -28,0 -53,10 -73,31 -20,20 -31,46 -31,76 0,24 8,44 23,59 15,15 35,23 59,23zm423 -89l-207 0c0,28 7,49 22,65 15,16 34,24 59,24 16,0 31,-4 45,-10 14,-7 25,-16 35,-28l22 18c-11,14 -26,25 -44,34 -18,8 -38,13 -59,13 -36,0 -64,-11 -82,-34 -18,-22 -27,-48 -27,-76 0,-23 6,-45 18,-66 12,-21 29,-38 50,-50 20,-12 42,-17 67,-17 29,0 54,10 73,30 20,20 30,45 30,76 0,6 -1,13 -2,21zm-27 -26c-1,-22 -9,-39 -23,-53 -14,-13 -31,-20 -53,-20 -23,0 -43,6 -61,19 -18,13 -30,31 -38,54l175 0zm408 -177l-4 30 -141 0 -13 103 140 0 -4 29 -140 0 -17 121 141 0 -4 30 -172 0 42 -313 172 0zm248 313l-30 0 4 -35c-27,27 -57,41 -92,41 -31,0 -57,-10 -77,-31 -21,-20 -31,-46 -31,-78 0,-37 13,-68 40,-95 26,-26 57,-39 93,-39 19,0 36,4 51,12 14,8 27,20 37,37l6 -44 30 0 -31 232zm-114 -21c19,0 36,-5 52,-14 16,-9 28,-22 37,-39 9,-17 14,-35 14,-55 0,-24 -8,-43 -23,-58 -15,-15 -34,-23 -59,-23 -28,0 -52,10 -73,31 -20,20 -30,46 -30,76 0,24 8,44 23,59 15,15 34,23 59,23zm322 -185l-16 24c-13,-18 -29,-28 -47,-28 -10,0 -19,4 -26,10 -7,7 -11,15 -11,23 0,6 2,12 7,18 4,5 14,13 29,23 22,14 37,26 44,37 7,11 10,23 10,37 0,20 -6,36 -20,49 -14,12 -31,19 -53,19 -29,0 -53,-13 -73,-38l19 -22c17,21 35,32 56,32 11,0 21,-4 30,-12 8,-8 13,-18 13,-28 0,-9 -4,-17 -10,-25 -4,-5 -15,-14 -33,-26 -20,-13 -33,-24 -39,-33 -6,-9 -9,-18 -9,-29 0,-18 7,-32 20,-44 13,-12 29,-18 49,-18 11,0 22,2 31,7 10,4 19,13 29,24zm32 -26l30 0 60 171 100 -171 33 0 -184 317 -33 0 65 -113 -71 -204z"/>
     <g>
      <path class="fil1" d="M538 5776c13,0 25,-1 39,-4 13,-2 27,-6 40,-10l0 50c-8,3 -20,7 -37,10 -17,3 -35,5 -53,5 -18,0 -36,-3 -52,-7 -17,-5 -31,-13 -44,-23 -12,-11 -22,-24 -29,-41 -7,-17 -11,-37 -11,-61 0,-24 3,-44 10,-62 7,-18 16,-32 28,-44 11,-11 24,-20 39,-26 15,-6 30,-9 46,-9 16,0 31,3 45,8 14,5 26,13 36,23 10,11 18,25 24,42 5,16 8,36 8,59 0,9 0,17 -1,23l-170 0c1,12 4,22 8,31 5,8 10,15 18,21 7,5 15,9 25,11 10,3 20,4 31,4zm-25 -172c-8,0 -15,1 -22,4 -6,3 -11,7 -16,12 -4,5 -8,11 -11,18 -2,7 -4,14 -5,22l102 0c0,-8 -1,-15 -3,-22 -2,-7 -5,-13 -9,-18 -4,-5 -9,-9 -15,-12 -6,-3 -13,-4 -21,-4zm280 78c-6,0 -12,-1 -18,-1 -5,0 -11,0 -16,-1l0 140 -66 0 0 -358 104 0c17,0 32,1 45,3 13,1 25,3 35,6 24,8 43,20 56,36 14,17 20,37 20,63 0,17 -3,33 -10,46 -8,14 -18,26 -32,36 -13,9 -30,17 -50,22 -20,5 -43,8 -68,8zm-34 -57c4,1 9,1 14,1 6,1 12,1 19,1 17,0 32,-2 44,-5 12,-2 21,-6 29,-11 7,-6 12,-12 15,-19 4,-7 5,-15 5,-23 0,-11 -2,-20 -7,-28 -5,-7 -13,-13 -25,-18 -6,-2 -14,-3 -23,-4 -9,-1 -21,-2 -34,-2l-37 0 0 108zm409 168l-1 0c-4,3 -8,7 -13,11 -5,4 -11,8 -17,11 -7,4 -14,7 -22,9 -8,2 -16,3 -25,3 -13,0 -24,-2 -35,-6 -11,-4 -20,-9 -27,-17 -8,-7 -14,-15 -18,-26 -5,-10 -7,-22 -7,-34 0,-14 2,-27 8,-38 5,-11 12,-20 21,-28 9,-7 20,-13 32,-17 13,-4 27,-6 43,-6 11,0 21,0 31,2 9,1 17,3 24,5l0 -10c0,-6 -1,-12 -3,-18 -2,-6 -5,-11 -10,-15 -4,-4 -10,-8 -17,-10 -8,-3 -17,-4 -27,-4 -13,0 -26,1 -39,4 -12,3 -26,7 -41,13l0 -50c13,-5 26,-10 41,-13 15,-3 30,-4 46,-5 19,0 36,3 50,7 14,5 26,11 35,20 10,8 17,17 22,28 5,11 7,23 7,36l0 98c0,17 0,32 1,44 0,13 0,24 1,33l-58 0 -2 -27zm-6 -83c-6,-2 -13,-3 -20,-4 -8,-1 -16,-2 -24,-2 -16,0 -28,3 -37,9 -9,6 -13,16 -13,29 0,5 1,11 3,15 2,4 4,8 8,11 3,3 8,5 12,6 5,2 10,2 15,2 6,0 12,0 18,-2 6,-2 11,-4 16,-7 5,-2 9,-5 13,-8 3,-4 7,-7 9,-10l0 -39zm103 -149l68 0 38 94c15,36 25,62 31,79l2 0c4,-13 13,-38 28,-74l40 -99 69 0 -167 384 -63 0 60 -139 -106 -245zm467 50l-5 0c-19,0 -37,3 -51,9 -15,6 -26,15 -34,27l0 173 -64 0 0 -259 53 0 5 36 2 0c7,-13 17,-24 30,-31 14,-8 29,-12 48,-12 6,0 12,1 16,2l0 55zm220 80c0,-14 -2,-26 -5,-37 -3,-10 -8,-19 -14,-26 -5,-7 -12,-13 -20,-16 -8,-4 -17,-6 -26,-6 -10,0 -18,2 -26,6 -8,3 -15,9 -21,16 -5,7 -10,16 -13,26 -3,11 -5,23 -5,37 0,13 2,25 5,36 3,10 8,19 14,26 5,7 12,13 20,16 8,4 17,6 26,6 10,0 18,-2 26,-6 8,-3 15,-9 20,-16 6,-7 11,-16 14,-26 3,-11 5,-23 5,-36zm65 0c0,20 -3,39 -9,55 -6,17 -14,31 -26,43 -11,12 -25,22 -41,28 -16,7 -34,10 -54,10 -20,0 -38,-3 -55,-10 -16,-6 -29,-16 -41,-28 -11,-12 -20,-26 -26,-43 -5,-16 -8,-35 -8,-55 0,-21 3,-39 9,-56 6,-17 14,-31 26,-43 11,-12 25,-21 41,-28 16,-6 34,-10 54,-10 20,0 38,4 54,10 17,7 30,16 42,28 11,12 19,26 25,43 6,17 9,35 9,56zm59 129l0 -387 63 0 0 387 -63 0zm138 0l0 -387 64 0 0 387 -64 0zm441 -96c8,-28 18,-58 29,-90l62 -172 92 0 0 358 -66 0 0 -181c0,-27 2,-58 4,-93l-3 0c-3,11 -6,22 -10,35 -5,12 -9,25 -13,37l-74 202 -42 0 -74 -202c-5,-12 -9,-25 -13,-37 -4,-13 -8,-24 -11,-35l-2 0c2,33 3,64 3,93l0 181 -66 0 0 -358 92 0 61 171c11,28 20,59 30,91l1 0zm414 69l-1 0c-4,3 -8,7 -13,11 -5,4 -11,8 -17,11 -7,4 -14,7 -22,9 -8,2 -16,3 -25,3 -12,0 -24,-2 -35,-6 -10,-4 -20,-9 -27,-17 -8,-7 -14,-15 -18,-26 -5,-10 -7,-22 -7,-34 0,-14 3,-27 8,-38 5,-11 12,-20 21,-28 9,-7 20,-13 33,-17 12,-4 26,-6 42,-6 11,0 21,0 31,2 9,1 17,3 25,5l0 -10c0,-6 -1,-12 -4,-18 -2,-6 -5,-11 -9,-15 -5,-4 -11,-8 -18,-10 -8,-3 -16,-4 -27,-4 -13,0 -26,1 -39,4 -12,3 -26,7 -41,13l0 -50c13,-5 27,-10 41,-13 15,-3 30,-4 46,-5 19,0 36,3 50,7 14,5 26,11 36,20 9,8 16,17 21,28 5,11 7,23 7,36l0 98c0,17 0,32 1,44 0,13 0,24 1,33l-57 0 -3 -27zm-5 -83c-6,-2 -13,-3 -21,-4 -8,-1 -16,-2 -24,-2 -16,0 -28,3 -37,9 -9,6 -13,16 -13,29 0,5 1,11 3,15 2,4 5,8 8,11 4,3 8,5 12,6 5,2 10,2 15,2 6,0 12,0 18,-2 6,-2 11,-4 16,-7 5,-2 9,-5 13,-8 4,-4 7,-7 10,-10l0 -39zm192 -113l1 0c4,-5 9,-11 14,-16 6,-5 13,-9 20,-13 7,-4 15,-8 24,-10 9,-2 18,-4 28,-4 10,0 19,2 28,4 9,2 17,5 24,10 7,4 14,10 19,17 6,8 10,16 14,26 1,6 3,12 3,18 1,7 1,14 1,23l0 168 -63 0 0 -158c0,-7 -1,-13 -1,-18 -1,-5 -2,-10 -3,-13 -3,-9 -8,-14 -15,-18 -6,-4 -14,-5 -23,-5 -13,0 -24,3 -36,8 -11,6 -21,15 -30,26l0 178 -63 0 0 -259 52 0 6 36zm399 196l-1 0c-4,3 -8,7 -13,11 -5,4 -11,8 -17,11 -7,4 -14,7 -22,9 -7,2 -16,3 -25,3 -12,0 -24,-2 -35,-6 -10,-4 -20,-9 -27,-17 -8,-7 -14,-15 -18,-26 -5,-10 -7,-22 -7,-34 0,-14 3,-27 8,-38 5,-11 12,-20 21,-28 9,-7 20,-13 33,-17 12,-4 26,-6 42,-6 11,0 21,0 31,2 9,1 17,3 25,5l0 -10c0,-6 -1,-12 -3,-18 -3,-6 -6,-11 -10,-15 -5,-4 -11,-8 -18,-10 -7,-3 -16,-4 -27,-4 -13,0 -26,1 -38,4 -13,3 -27,7 -42,13l0 -50c13,-5 27,-10 41,-13 15,-3 30,-4 46,-5 19,0 36,3 50,7 14,5 26,11 36,20 9,8 16,17 21,28 5,11 7,23 7,36l0 98c0,17 0,32 1,44 0,13 0,24 1,33l-57 0 -3 -27zm-5 -83c-6,-2 -13,-3 -21,-4 -8,-1 -16,-2 -24,-2 -15,0 -28,3 -37,9 -9,6 -13,16 -13,29 0,5 1,11 3,15 2,4 5,8 8,11 4,3 8,5 12,6 5,2 10,2 15,2 6,0 12,0 18,-2 6,-2 11,-4 16,-7 5,-2 9,-5 13,-8 4,-4 7,-7 10,-10l0 -39zm303 117c0,-4 0,-8 0,-13 0,-6 0,-10 0,-14l0 0c-4,4 -9,7 -14,10 -5,3 -10,6 -17,8 -6,3 -12,5 -20,7 -7,1 -14,2 -22,2 -14,0 -27,-3 -40,-8 -14,-4 -25,-12 -35,-23 -11,-10 -19,-24 -25,-41 -6,-16 -9,-36 -9,-60 0,-23 3,-43 9,-61 6,-18 15,-32 25,-44 11,-12 23,-21 37,-27 13,-6 27,-9 42,-9 16,0 30,4 42,10 13,7 23,16 31,26l1 0 2 -29 56 0 0 264c0,15 -1,28 -4,39 -2,11 -6,21 -11,29 -5,10 -13,18 -22,26 -8,7 -18,13 -30,18 -11,5 -24,8 -37,11 -14,2 -28,3 -43,3 -9,0 -17,0 -25,-1 -9,0 -16,-1 -24,-2 -7,-2 -13,-3 -19,-4 -6,-2 -11,-3 -15,-5l0 -51c11,3 24,6 37,8 12,2 26,3 40,3 29,0 51,-5 66,-16 16,-11 24,-28 24,-50l0 -6zm-57 -51c6,0 12,0 18,-2 6,-2 11,-4 16,-6 5,-3 9,-5 13,-9 4,-3 7,-6 10,-9l0 -116c-7,-8 -16,-14 -26,-20 -10,-5 -20,-8 -31,-8 -4,0 -9,0 -13,1 -4,1 -9,3 -13,6 -5,2 -9,5 -13,10 -4,4 -7,9 -11,16 -3,6 -5,14 -7,23 -2,9 -3,19 -3,31 0,13 2,24 4,35 3,10 6,19 11,26 5,7 12,13 19,17 7,3 16,5 26,5zm323 0c12,0 25,-1 39,-4 13,-2 27,-6 40,-10l0 50c-8,3 -20,7 -37,10 -17,3 -35,5 -53,5 -19,0 -36,-3 -53,-7 -16,-5 -30,-13 -43,-23 -12,-11 -22,-24 -29,-41 -7,-17 -11,-37 -11,-61 0,-24 3,-44 10,-62 7,-18 16,-32 27,-44 12,-11 25,-20 40,-26 14,-6 30,-9 45,-9 17,0 32,3 46,8 14,5 26,13 36,23 10,11 18,25 23,42 6,16 9,36 9,59 0,9 -1,17 -1,23l-170 0c1,12 3,22 8,31 4,8 10,15 18,21 7,5 15,9 25,11 9,3 20,4 31,4zm-25 -172c-8,0 -16,1 -22,4 -6,3 -11,7 -16,12 -5,5 -8,11 -11,18 -3,7 -4,14 -5,22l102 0c0,-8 -1,-15 -3,-22 -2,-7 -5,-13 -9,-18 -4,-5 -9,-9 -15,-12 -6,-3 -13,-4 -21,-4zm506 58c0,-5 0,-10 0,-15 -1,-5 -1,-9 -2,-13 -2,-8 -6,-14 -12,-19 -5,-5 -13,-7 -24,-7 -5,0 -11,0 -17,2 -6,2 -12,4 -17,7 -6,3 -12,6 -17,11 -5,4 -10,8 -14,14l0 178 -64 0 0 -158c0,-5 0,-10 0,-15 -1,-5 -1,-9 -2,-13 -2,-8 -6,-14 -12,-19 -5,-5 -13,-7 -24,-7 -5,0 -11,0 -17,2 -6,2 -12,4 -18,7 -5,3 -11,6 -16,11 -5,4 -10,8 -14,14l0 178 -64 0 0 -259 53 0 5 36 2 0c3,-5 8,-11 14,-16 5,-5 12,-9 19,-13 7,-4 15,-8 24,-10 9,-2 18,-4 28,-4 17,0 32,4 46,12 13,7 24,19 31,35l1 0c5,-7 11,-13 17,-19 6,-5 13,-10 20,-14 8,-5 16,-8 24,-10 9,-2 18,-4 28,-4 19,1 34,4 47,12 13,8 22,18 29,31 2,4 3,7 5,11 1,4 2,9 3,14 0,5 1,10 1,16 1,7 1,14 1,21l0 161 -64 0 0 -158zm267 114c12,0 25,-1 39,-4 13,-2 26,-6 40,-10l0 50c-8,3 -21,7 -38,10 -16,3 -34,5 -52,5 -19,0 -36,-3 -53,-7 -16,-5 -30,-13 -43,-23 -12,-11 -22,-24 -29,-41 -8,-17 -11,-37 -11,-61 0,-24 3,-44 10,-62 7,-18 16,-32 27,-44 12,-11 25,-20 40,-26 14,-6 30,-9 45,-9 17,0 32,3 46,8 14,5 26,13 36,23 10,11 18,25 23,42 6,16 9,36 9,59 0,9 -1,17 -1,23l-170 0c1,12 3,22 8,31 4,8 10,15 17,21 8,5 16,9 26,11 9,3 20,4 31,4zm-25 -172c-8,0 -16,1 -22,4 -6,3 -11,7 -16,12 -5,5 -8,11 -11,18 -3,7 -4,14 -5,22l102 0c0,-8 -1,-15 -3,-22 -2,-7 -5,-13 -9,-18 -4,-5 -9,-9 -15,-12 -6,-3 -13,-4 -21,-4zm230 -7l1 0c4,-5 9,-11 15,-16 5,-5 12,-9 19,-13 8,-4 16,-8 24,-10 9,-2 19,-4 29,-4 9,0 18,2 27,4 9,2 17,5 24,10 8,4 14,10 20,17 5,8 10,16 13,26 2,6 3,12 4,18 0,7 1,14 1,23l0 168 -64 0 0 -158c0,-7 0,-13 -1,-18 0,-5 -1,-10 -3,-13 -3,-9 -8,-14 -14,-18 -7,-4 -15,-5 -24,-5 -12,0 -24,3 -35,8 -12,6 -22,15 -30,26l0 178 -64 0 0 -259 53 0 5 36zm405 223c-8,2 -16,4 -26,5 -10,1 -19,2 -28,2 -21,0 -39,-4 -53,-11 -14,-7 -24,-17 -29,-30 -5,-10 -7,-22 -7,-39l0 -134 -48 0 0 -52 48 0 0 -72 64 0 0 72 75 0 0 52 -75 0 0 126c0,10 2,17 5,22 5,9 16,13 31,13 8,0 15,-1 22,-2 7,-1 14,-3 21,-4l0 52zm333 -103c0,-9 -3,-16 -7,-22 -5,-5 -11,-10 -18,-14 -8,-3 -17,-6 -26,-8 -10,-2 -20,-5 -30,-7 -14,-3 -27,-6 -40,-11 -12,-4 -24,-10 -33,-17 -10,-7 -17,-17 -23,-28 -6,-12 -9,-26 -9,-43 0,-19 4,-35 10,-50 7,-14 16,-25 27,-34 12,-9 25,-16 40,-21 15,-4 33,-7 52,-7 19,0 38,2 57,6 20,4 36,8 50,14l0 56c-18,-7 -36,-12 -53,-15 -17,-4 -33,-5 -48,-5 -22,0 -39,4 -50,11 -12,8 -18,20 -18,36 0,9 2,16 6,22 4,6 9,11 15,15 7,4 15,7 23,9 9,2 18,5 27,7 15,3 30,6 44,11 13,4 26,10 36,17 11,8 19,17 26,29 6,12 9,28 9,47 0,19 -4,36 -11,50 -7,14 -17,25 -30,35 -13,9 -29,16 -48,20 -19,5 -39,7 -61,7 -20,0 -39,-2 -58,-6 -19,-4 -34,-9 -47,-16l0 -55c18,7 35,13 52,16 17,4 34,5 52,5 10,0 20,0 30,-2 10,-2 19,-5 27,-9 8,-4 14,-9 19,-17 5,-7 8,-15 8,-26zm100 -156l68 0 39 94c14,36 25,62 31,79l1 0c4,-13 14,-38 28,-74l40 -99 69 0 -167 384 -63 0 60 -139 -106 -245zm428 184c0,-6 -1,-10 -4,-14 -3,-3 -8,-6 -13,-9 -5,-2 -11,-4 -18,-6 -6,-2 -13,-4 -21,-5 -9,-3 -18,-6 -26,-9 -9,-3 -16,-8 -23,-13 -6,-5 -12,-12 -16,-20 -3,-8 -5,-18 -5,-30 0,-15 2,-27 7,-38 6,-10 13,-19 22,-26 8,-7 19,-12 30,-15 12,-4 24,-6 37,-6 16,0 31,2 45,4 14,3 27,6 38,10l0 52c-6,-2 -12,-4 -19,-6 -6,-1 -13,-3 -20,-4 -6,-1 -13,-2 -20,-3 -6,-1 -12,-1 -18,-1 -8,0 -14,1 -19,2 -5,2 -10,3 -13,6 -3,2 -5,5 -7,8 -1,3 -2,6 -2,10 0,6 2,10 5,14 3,4 7,7 13,9 5,3 11,5 17,6 6,2 12,3 18,5 9,2 18,4 26,7 9,3 17,7 25,13 7,5 12,12 17,21 5,9 7,20 7,33 0,15 -3,28 -8,38 -6,11 -14,20 -24,28 -9,7 -21,12 -35,16 -14,3 -29,5 -46,5 -16,0 -31,-1 -44,-4 -13,-3 -24,-6 -33,-10l0 -51c14,5 27,9 39,11 12,1 23,2 33,2 8,0 15,0 22,-1 7,-2 13,-3 17,-6 5,-2 9,-5 12,-9 3,-4 4,-9 4,-14zm276 75c-7,2 -15,4 -25,5 -10,1 -19,2 -28,2 -22,0 -40,-4 -53,-11 -14,-7 -24,-17 -30,-30 -4,-10 -6,-22 -6,-39l0 -134 -48 0 0 -52 48 0 0 -72 64 0 0 72 74 0 0 52 -74 0 0 126c0,10 1,17 4,22 5,9 16,13 32,13 7,0 15,-1 22,-2 7,-1 14,-3 20,-4l0 52z"/>
      <path class="fil1" d="M6897 5776c13,0 26,-1 39,-4 13,-2 27,-6 41,-10l0 50c-9,3 -21,7 -38,10 -17,3 -35,5 -53,5 -18,0 -36,-3 -52,-7 -17,-5 -31,-13 -43,-23 -13,-11 -23,-24 -30,-41 -7,-17 -11,-37 -11,-61 0,-24 4,-44 11,-62 6,-18 15,-32 27,-44 11,-11 24,-20 39,-26 15,-6 30,-9 46,-9 16,0 31,3 45,8 14,5 26,13 36,23 10,11 18,25 24,42 5,16 8,36 8,59 0,9 0,17 -1,23l-170 0c1,12 4,22 8,31 5,8 11,15 18,21 7,5 16,9 25,11 10,3 20,4 31,4zm-25 -172c-8,0 -15,1 -21,4 -7,3 -12,7 -17,12 -4,5 -8,11 -10,18 -3,7 -5,14 -6,22l102 0c0,-8 -1,-15 -3,-22 -2,-7 -5,-13 -9,-18 -4,-5 -9,-9 -15,-12 -6,-3 -13,-4 -21,-4zm507 58c0,-5 0,-10 -1,-15 0,-5 -1,-9 -2,-13 -2,-8 -5,-14 -11,-19 -6,-5 -14,-7 -24,-7 -6,0 -12,0 -17,2 -6,2 -12,4 -18,7 -6,3 -11,6 -17,11 -5,4 -10,8 -14,14l0 178 -63 0 0 -158c0,-5 -1,-10 -1,-15 0,-5 -1,-9 -2,-13 -2,-8 -6,-14 -11,-19 -6,-5 -14,-7 -24,-7 -6,0 -12,0 -18,2 -5,2 -11,4 -17,7 -6,3 -11,6 -17,11 -5,4 -10,8 -14,14l0 178 -64 0 0 -259 53 0 6 36 1 0c4,-5 8,-11 14,-16 6,-5 12,-9 20,-13 7,-4 15,-8 23,-10 9,-2 18,-4 28,-4 17,0 32,4 46,12 14,7 24,19 31,35l1 0c5,-7 11,-13 17,-19 6,-5 13,-10 21,-14 7,-5 15,-8 24,-10 9,-2 18,-4 28,-4 18,1 34,4 46,12 13,8 23,18 29,31 2,4 4,7 5,11 1,4 2,9 3,14 1,5 1,10 2,16 0,7 0,14 0,21l0 161 -63 0 0 -158z"/>
     </g>
    </g>
   </g>
  </g>
 </g>
</svg>
