<?xml version="1.0" encoding="UTF-8"?>
<!DOCTYPE svg PUBLIC "-//W3C//DTD SVG 1.1//EN" "http://www.w3.org/Graphics/SVG/1.1/DTD/svg11.dtd">
<!-- Creator: CorelDRAW X7 -->
<svg xmlns="http://www.w3.org/2000/svg" xml:space="preserve" width="46.218mm" height="40.9349mm" version="1.1" style="shape-rendering:geometricPrecision; text-rendering:geometricPrecision; image-rendering:optimizeQuality; fill-rule:evenodd; clip-rule:evenodd"
viewBox="0 0 4622 4093"
 xmlns:xlink="http://www.w3.org/1999/xlink">
 <defs>
  <style type="text/css">
   <![CDATA[
    .fil0 {fill:#145C9E;fill-rule:nonzero}
    .fil1 {fill:#4A9BE6;fill-rule:nonzero}
   ]]>
  </style>
 </defs>
 <g id="Layer_x0020_1">
  <metadata id="CorelCorpID_0Corel-Layer"/>
  <g id="_1720334758912">
   <g>
    <path class="fil0" d="M1756 2579l-298 -172c-271,-156 -464,-380 -580,-670 -147,-367 -118,-730 88,-1085 211,-367 519,-580 921,-639 285,-43 574,19 868,185l-1118 1936 282 163 -163 282zm587 -2216c-169,-48 -317,-62 -446,-42 -129,20 -254,73 -375,158 -121,86 -218,192 -292,320 -122,212 -160,432 -112,662 34,169 133,337 297,508l928 -1606z"/>
    <path class="fil0" d="M3104 399c271,156 464,380 579,670 147,367 118,730 -87,1085 -211,367 -519,580 -922,639 -203,30 -409,8 -617,-68l-498 862 -238 -138 485 -841 1118 -1936 180 -273zm-577 1510l0 0 -308 534c169,48 317,62 446,42 129,-20 253,-73 374,-158 121,-85 219,-192 293,-320 122,-212 159,-432 112,-662 -34,-169 -134,-337 -298,-508l-619 1072z"/>
   </g>
   <path class="fil1" d="M0 3770l51 0c28,0 48,3 61,8 12,5 22,14 29,25 7,12 10,25 10,41 0,18 -4,33 -14,45 -9,11 -22,20 -38,24 -9,3 -26,4 -51,4l0 108 -48 0 0 -255zm48 100l16 0c12,0 20,-1 25,-3 5,-1 9,-4 11,-8 3,-4 4,-9 4,-15 0,-10 -3,-17 -11,-21 -6,-4 -16,-5 -31,-5l-14 0 0 52zm285 -33l47 0 0 188 -47 0 0 -20c-10,9 -19,15 -28,19 -9,3 -20,5 -30,5 -25,0 -46,-9 -63,-28 -18,-19 -27,-42 -27,-70 0,-29 9,-53 26,-71 17,-19 38,-28 62,-28 12,0 22,2 32,6 10,5 19,11 28,19l0 -20zm-50 38c-15,0 -27,5 -36,16 -10,10 -15,23 -15,39 0,17 5,30 15,40 10,11 22,16 36,16 15,0 27,-5 37,-15 10,-11 15,-24 15,-41 0,-16 -5,-29 -15,-40 -10,-10 -22,-15 -37,-15zm123 -38l49 0 48 117 54 -117 49 0 -118 256 -48 0 38 -82 -72 -174zm216 0l40 0 0 24c5,-10 11,-17 18,-22 7,-4 15,-7 23,-7 7,0 13,2 20,5l-15 41c-6,-3 -10,-4 -14,-4 -7,0 -13,4 -18,13 -5,9 -7,27 -7,53l0 9 0 76 -47 0 0 -188zm212 -5c18,0 35,5 51,13 15,9 27,21 36,36 9,16 13,32 13,50 0,17 -4,34 -13,49 -9,16 -21,28 -36,36 -15,9 -32,13 -50,13 -27,0 -51,-9 -70,-28 -19,-19 -28,-43 -28,-70 0,-29 11,-54 32,-73 19,-17 41,-26 65,-26zm1 44c-15,0 -27,5 -37,16 -9,10 -14,23 -14,39 0,16 5,29 14,39 10,10 22,15 37,15 15,0 27,-5 37,-15 10,-10 15,-23 15,-39 0,-16 -5,-29 -15,-40 -10,-10 -22,-15 -37,-15zm133 -112l47 0 0 261 -47 0 0 -261zm85 0l47 0 0 261 -47 0 0 -261zm327 41l-35 32c-13,-18 -26,-26 -39,-26 -6,0 -11,1 -16,5 -4,3 -6,7 -6,11 0,4 2,8 5,12 4,5 16,16 35,33 19,15 30,25 34,29 10,10 17,19 21,28 4,10 6,19 6,30 0,21 -7,38 -22,52 -14,13 -33,20 -56,20 -18,0 -34,-4 -47,-13 -14,-9 -26,-23 -35,-42l41 -25c12,23 26,34 42,34 8,0 15,-2 21,-7 6,-5 9,-11 9,-17 0,-6 -3,-11 -7,-17 -4,-6 -14,-15 -28,-27 -28,-22 -46,-40 -54,-52 -8,-12 -12,-24 -12,-37 0,-17 7,-32 20,-45 14,-13 30,-19 50,-19 13,0 25,3 36,9 12,6 24,16 37,32zm234 139l-151 0c2,13 8,24 17,32 9,8 22,12 36,12 18,0 33,-6 46,-19l39 19c-10,14 -22,25 -35,31 -14,7 -31,10 -50,10 -29,0 -53,-9 -71,-27 -19,-19 -28,-42 -28,-70 0,-29 9,-53 28,-72 18,-18 41,-28 69,-28 30,0 54,10 72,28 19,19 28,44 28,75l0 9zm-47 -37c-3,-10 -9,-18 -18,-25 -10,-6 -20,-10 -32,-10 -14,0 -25,4 -35,11 -6,5 -12,13 -17,24l102 0zm74 -70l41 0 0 24c5,-10 10,-17 18,-22 7,-4 15,-7 23,-7 6,0 13,2 19,5l-14 41c-6,-3 -10,-4 -14,-4 -7,0 -13,4 -18,13 -5,9 -8,27 -8,53l1 9 0 76 -48 0 0 -188zm105 0l48 0 47 111 48 -111 48 0 -81 188 -30 0 -80 -188zm237 -78c8,0 15,4 21,9 6,6 9,14 9,22 0,9 -3,16 -9,22 -6,5 -13,8 -21,8 -8,0 -15,-3 -21,-9 -6,-6 -9,-13 -9,-22 0,-8 3,-15 9,-21 5,-6 12,-9 21,-9zm-24 78l47 0 0 188 -47 0 0 -188zm274 38l-39 22c-7,-8 -15,-13 -22,-16 -7,-3 -16,-5 -25,-5 -18,0 -32,5 -43,16 -11,10 -16,24 -16,40 0,16 5,29 15,39 11,10 25,15 42,15 21,0 37,-7 49,-21l37 25c-20,26 -49,39 -85,39 -33,0 -59,-9 -78,-29 -19,-19 -28,-42 -28,-69 0,-18 4,-34 13,-50 10,-15 22,-27 39,-36 16,-9 34,-13 54,-13 19,0 36,4 51,11 15,8 27,18 36,32zm231 69l-151 0c2,13 8,24 17,32 9,8 22,12 36,12 18,0 33,-6 46,-19l39 19c-10,14 -22,25 -35,31 -14,7 -31,10 -50,10 -29,0 -53,-9 -71,-27 -19,-19 -28,-42 -28,-70 0,-29 9,-53 28,-72 18,-18 41,-28 69,-28 30,0 54,10 72,28 19,19 28,44 28,75l0 9zm-47 -37c-3,-10 -9,-18 -18,-25 -10,-6 -20,-10 -32,-10 -14,0 -25,4 -35,11 -6,5 -12,13 -17,24l102 0zm201 -44l-30 30c-11,-12 -22,-18 -32,-18 -5,0 -9,1 -12,3 -3,3 -5,5 -5,9 0,2 1,4 3,7 2,2 7,5 14,8l17 9c19,9 31,18 38,27 7,10 10,20 10,33 0,17 -6,31 -18,42 -13,11 -29,16 -50,16 -27,0 -49,-10 -65,-32l29 -31c5,6 12,11 19,15 8,4 14,6 20,6 6,0 11,-1 15,-4 4,-3 6,-7 6,-11 0,-7 -7,-14 -21,-21l-16 -8c-30,-15 -45,-34 -45,-57 0,-15 5,-28 17,-38 11,-11 26,-16 44,-16 12,0 23,3 34,8 11,6 20,13 28,23zm169 -93l47 0 59 178 60 -178 47 0 42 255 -46 0 -28 -161 -53 161 -43 0 -54 -161 -28 161 -47 0 44 -255zm428 67l47 0 0 188 -47 0 0 -20c-9,9 -18,15 -27,19 -10,3 -20,5 -31,5 -24,0 -45,-9 -63,-28 -18,-19 -26,-42 -26,-70 0,-29 8,-53 25,-71 18,-19 38,-28 63,-28 11,0 22,2 32,6 10,5 19,11 27,19l0 -20zm-49 38c-15,0 -27,5 -37,16 -9,10 -14,23 -14,39 0,17 5,30 15,40 9,11 21,16 36,16 15,0 27,-5 37,-15 10,-11 14,-24 14,-41 0,-16 -4,-29 -14,-40 -10,-10 -22,-15 -37,-15zm283 -111l47 0 0 261 -47 0 0 -20c-9,9 -18,15 -28,19 -9,3 -19,5 -30,5 -24,0 -45,-9 -63,-28 -18,-19 -27,-42 -27,-70 0,-29 9,-53 26,-71 17,-19 38,-28 63,-28 11,0 22,2 32,6 10,5 19,11 27,19l0 -93zm-49 111c-15,0 -27,5 -37,16 -10,10 -14,23 -14,39 0,17 4,30 14,40 10,11 22,16 37,16 15,0 27,-5 37,-15 9,-11 14,-24 14,-41 0,-16 -5,-29 -14,-40 -10,-10 -23,-15 -37,-15zm332 69l-151 0c2,13 8,24 17,32 10,8 22,12 36,12 18,0 33,-6 46,-19l39 19c-10,14 -22,25 -35,31 -14,7 -31,10 -49,10 -30,0 -54,-9 -72,-27 -19,-19 -28,-42 -28,-70 0,-29 9,-53 28,-72 18,-18 41,-28 69,-28 30,0 54,10 72,28 19,19 28,44 28,75l0 9zm-47 -37c-3,-10 -9,-18 -18,-25 -10,-6 -20,-10 -32,-10 -13,0 -25,4 -35,11 -6,5 -12,13 -17,24l102 0zm190 -137l139 0 0 48 -91 0 0 46 91 0 0 46 -91 0 0 67 91 0 0 48 -139 0 0 -255zm318 67l47 0 0 188 -47 0 0 -20c-9,9 -18,15 -28,19 -9,3 -19,5 -30,5 -24,0 -45,-9 -63,-28 -18,-19 -27,-42 -27,-70 0,-29 9,-53 26,-71 17,-19 38,-28 63,-28 11,0 22,2 31,6 10,5 20,11 28,19l0 -20zm-50 38c-14,0 -26,5 -36,16 -10,10 -15,23 -15,39 0,17 5,30 15,40 10,11 22,16 37,16 14,0 27,-5 36,-15 10,-11 15,-24 15,-41 0,-16 -5,-29 -15,-40 -9,-10 -22,-15 -37,-15zm260 -12l-29 30c-12,-12 -23,-18 -33,-18 -5,0 -9,1 -12,3 -3,3 -5,5 -5,9 0,2 1,4 3,7 2,2 7,5 14,8l18 9c18,9 30,18 37,27 7,10 10,20 10,33 0,17 -6,31 -18,42 -12,11 -29,16 -50,16 -27,0 -49,-10 -65,-32l29 -31c5,6 12,11 19,15 8,4 14,6 20,6 6,0 12,-1 15,-4 4,-3 6,-7 6,-11 0,-7 -7,-14 -21,-21l-15 -8c-31,-15 -46,-34 -46,-57 0,-15 6,-28 17,-38 11,-11 26,-16 44,-16 12,0 24,3 34,8 11,6 20,13 28,23zm19 -26l49 0 49 117 54 -117 48 0 -118 256 -48 0 38 -82 -72 -174z"/>
  </g>
 </g>
</svg>
