<?xml version="1.0" encoding="UTF-8"?>
<!DOCTYPE svg PUBLIC "-//W3C//DTD SVG 1.1//EN" "http://www.w3.org/Graphics/SVG/1.1/DTD/svg11.dtd">
<!-- Creator: CorelDRAW X7 -->
<svg xmlns="http://www.w3.org/2000/svg" xml:space="preserve" width="149.179mm" height="30.57mm" version="1.1" style="shape-rendering:geometricPrecision; text-rendering:geometricPrecision; image-rendering:optimizeQuality; fill-rule:evenodd; clip-rule:evenodd"
viewBox="0 0 14918 3057"
 xmlns:xlink="http://www.w3.org/1999/xlink">
 <defs>
  <style type="text/css">
   <![CDATA[
    .fil0 {fill:#145C9E;fill-rule:nonzero}
    .fil1 {fill:#666666;fill-rule:nonzero}
   ]]>
  </style>
 </defs>
 <g id="Layer_x0020_1">
  <metadata id="CorelCorpID_0Corel-Layer"/>
  <g id="_2905479027568">
   <g>
    <polygon class="fil0" points="2917,1508 14890,1508 14890,1561 2917,1561 "/>
    <path class="fil1" d="M4142 1873l145 0c48,0 83,4 104,13 21,9 37,23 50,43 12,20 19,43 19,70 0,35 -10,66 -30,92 -20,26 -45,44 -75,53 -22,8 -61,11 -116,11l-81 0 -34 253 -55 0 73 -535zm47 51l-24 178 74 0c50,0 84,-3 103,-10 20,-7 35,-19 47,-36 11,-17 17,-36 17,-56 0,-17 -4,-32 -12,-44 -8,-11 -19,-20 -33,-25 -14,-4 -39,-7 -77,-7l-95 0zm704 484l-52 0 8 -60c-46,46 -98,69 -157,69 -54,0 -98,-17 -132,-52 -35,-34 -52,-79 -52,-133 0,-63 23,-117 68,-162 45,-45 98,-68 159,-68 33,0 62,7 86,21 25,14 46,35 63,64l10 -75 52 0 -53 396zm-195 -37c33,0 62,-8 89,-23 27,-15 48,-38 64,-66 15,-29 23,-61 23,-95 0,-41 -13,-74 -38,-99 -26,-26 -60,-39 -101,-39 -48,0 -90,18 -124,53 -35,35 -52,78 -52,129 0,42 13,76 39,102 25,25 59,38 100,38zm315 -359l52 0 102 292 170 -292 57 0 -314 540 -57 0 112 -192 -122 -348zm429 0l51 0 -7 49c14,-18 30,-33 49,-43 20,-11 40,-16 60,-16 14,0 29,4 45,10l-24 47c-13,-5 -23,-8 -32,-8 -18,0 -35,7 -53,19 -17,12 -31,30 -42,53 -11,24 -20,63 -27,117l-24 168 -49 0 53 -396zm424 -10c34,0 65,8 93,24 28,16 50,39 66,68 16,28 24,61 24,97 0,41 -10,80 -30,115 -21,35 -48,63 -82,82 -34,20 -72,29 -115,29 -53,0 -97,-17 -131,-52 -35,-35 -52,-79 -52,-132 0,-43 10,-81 30,-117 21,-35 48,-63 83,-83 35,-21 73,-31 114,-31zm-1 49c-31,0 -61,8 -89,23 -27,16 -49,38 -64,65 -15,28 -22,58 -22,91 0,41 13,75 38,101 26,26 60,39 100,39 32,0 61,-7 87,-22 26,-15 46,-37 62,-66 15,-28 23,-59 23,-92 0,-27 -6,-51 -17,-72 -12,-21 -28,-38 -49,-50 -21,-11 -44,-17 -69,-17zm321 -192l50 0 -74 549 -50 0 74 -549zm149 0l50 0 -74 549 -50 0 74 -549zm614 113l-51 12c-7,-22 -18,-40 -33,-53 -16,-13 -32,-20 -50,-20 -20,0 -36,7 -49,20 -12,14 -18,32 -18,54 0,20 6,41 20,63 8,13 28,34 59,63 33,29 56,57 69,82 13,26 19,51 19,76 0,26 -7,51 -21,74 -14,25 -33,43 -58,57 -24,14 -49,21 -76,21 -34,0 -64,-11 -89,-33 -25,-21 -44,-53 -54,-95l49 -17c8,32 20,56 38,72 18,15 38,23 61,23 26,0 48,-10 67,-29 19,-19 28,-43 28,-71 0,-21 -5,-41 -16,-61 -10,-20 -31,-43 -62,-71 -33,-30 -55,-53 -65,-69 -16,-27 -24,-55 -24,-84 0,-37 11,-67 35,-91 24,-24 54,-36 90,-36 29,0 56,10 79,29 24,19 41,47 52,84zm457 248l-353 0c-1,47 12,84 37,111 25,27 58,40 100,40 28,0 54,-6 78,-17 23,-11 43,-27 59,-48l38 31c-20,24 -45,44 -76,58 -31,15 -64,22 -100,22 -62,0 -109,-19 -140,-57 -31,-39 -47,-82 -47,-130 0,-39 11,-77 32,-113 21,-36 49,-64 84,-84 35,-21 74,-31 115,-31 50,0 92,17 126,52 33,34 49,77 49,130 0,10 0,22 -2,36zm-47 -45c-1,-37 -14,-67 -38,-90 -24,-23 -54,-34 -90,-34 -40,0 -75,11 -105,33 -30,22 -52,52 -64,91l297 0zm155 -163l50 0 -6 49c13,-18 30,-33 49,-43 19,-11 39,-16 59,-16 15,0 30,4 46,10l-24 47c-13,-5 -24,-8 -32,-8 -18,0 -36,7 -53,19 -18,12 -32,30 -43,53 -10,24 -20,63 -27,117l-23 168 -49 0 53 -396zm197 0l52 0 99 290 167 -290 56 0 -228 396 -10 0 -136 -396zm491 -162c11,0 21,4 29,11 8,9 12,18 12,29 0,11 -4,21 -12,29 -8,8 -18,12 -29,12 -11,0 -21,-4 -29,-12 -7,-8 -11,-18 -11,-29 0,-11 4,-20 11,-29 8,-7 18,-11 29,-11zm-40 162l48 0 -52 396 -49 0 53 -396zm526 86l-41 24c-30,-47 -75,-71 -135,-71 -35,0 -67,7 -96,23 -29,15 -51,37 -68,64 -16,28 -24,58 -24,89 0,28 6,53 18,75 12,22 29,39 51,51 22,11 48,17 78,17 31,0 60,-6 87,-18 28,-12 50,-27 65,-47l42 30c-26,28 -54,49 -85,62 -31,14 -66,20 -107,20 -62,0 -111,-17 -146,-51 -35,-34 -53,-79 -53,-136 0,-62 23,-116 69,-161 46,-44 103,-67 169,-67 40,0 76,9 106,25 31,17 54,41 70,71zm470 122l-353 0c0,47 12,84 37,111 25,27 59,40 101,40 27,0 53,-6 77,-17 24,-11 43,-27 59,-48l38 31c-19,24 -44,44 -75,58 -31,15 -65,22 -101,22 -62,0 -108,-19 -140,-57 -31,-39 -46,-82 -46,-130 0,-39 10,-77 31,-113 21,-36 49,-64 85,-84 35,-21 73,-31 114,-31 51,0 93,17 126,52 33,34 50,77 50,130 0,10 -1,22 -3,36zm-46 -45c-2,-37 -15,-67 -39,-90 -24,-23 -54,-34 -90,-34 -40,0 -75,11 -105,33 -30,22 -51,52 -64,91l298 0zm359 -118l-27 41c-23,-32 -49,-48 -80,-48 -17,0 -32,6 -45,17 -12,11 -18,24 -18,38 0,10 3,21 11,30 7,10 24,23 50,40 38,24 63,46 75,64 12,18 18,39 18,63 0,33 -12,61 -35,83 -23,21 -53,32 -90,32 -49,0 -91,-22 -124,-65l31 -36c29,36 61,54 96,54 19,0 36,-7 51,-21 14,-14 22,-30 22,-48 0,-15 -6,-29 -17,-42 -7,-9 -26,-24 -57,-44 -33,-23 -55,-41 -65,-57 -10,-14 -16,-31 -16,-50 0,-29 12,-54 34,-75 22,-20 50,-31 83,-31 20,0 38,4 54,12 17,8 33,22 49,43zm841 -184l0 535 -50 0 0 -370 -233 370 -13 0 -138 -382 -110 382 -55 0 155 -535 9 0 156 434 270 -434 9 0zm493 535l-52 0 8 -60c-46,46 -98,69 -157,69 -53,0 -97,-17 -132,-52 -34,-34 -52,-79 -52,-133 0,-63 23,-117 68,-162 45,-45 98,-68 159,-68 33,0 62,7 87,21 24,14 45,35 62,64l10 -75 52 0 -53 396zm-195 -37c33,0 63,-8 89,-23 27,-15 48,-38 64,-66 16,-29 24,-61 24,-95 0,-41 -13,-74 -39,-99 -26,-26 -59,-39 -101,-39 -48,0 -90,18 -124,53 -35,35 -52,78 -52,129 0,42 13,76 39,102 26,25 59,38 100,38zm705 37l-51 0 8 -62c-47,48 -100,71 -159,71 -53,0 -97,-17 -131,-52 -35,-34 -52,-79 -52,-133 0,-63 23,-117 67,-162 45,-45 98,-68 159,-68 33,0 61,7 86,21 25,14 47,35 65,64l30 -228 52 0 -74 549zm-195 -37c33,0 63,-8 90,-23 26,-15 48,-38 63,-66 16,-29 24,-60 24,-94 0,-41 -13,-75 -39,-100 -26,-26 -59,-39 -101,-39 -48,0 -90,18 -124,53 -35,35 -52,78 -52,129 0,42 13,76 39,102 25,25 59,38 100,38zm722 -151l-353 0c-1,47 11,84 36,111 26,27 59,40 101,40 28,0 54,-6 77,-17 24,-11 44,-27 59,-48l38 31c-19,24 -44,44 -75,58 -31,15 -64,22 -100,22 -62,0 -109,-19 -140,-57 -31,-39 -47,-82 -47,-130 0,-39 11,-77 32,-113 21,-36 49,-64 84,-84 35,-21 73,-31 114,-31 51,0 93,17 126,52 34,34 50,77 50,130 0,10 -1,22 -2,36zm-47 -45c-2,-37 -14,-67 -38,-90 -24,-23 -54,-34 -91,-34 -39,0 -74,11 -104,33 -30,22 -52,52 -65,91l298 0zm697 -302l-8 52 -239 0 -24 175 240 0 -7 51 -240 0 -28 206 240 0 -6 51 -294 0 72 -535 294 0zm422 535l-51 0 8 -60c-46,46 -99,69 -158,69 -53,0 -97,-17 -132,-52 -34,-34 -52,-79 -52,-133 0,-63 23,-117 68,-162 45,-45 98,-68 159,-68 33,0 62,7 87,21 25,14 45,35 62,64l10 -75 52 0 -53 396zm-195 -37c33,0 63,-8 89,-23 27,-15 48,-38 64,-66 16,-29 24,-61 24,-95 0,-41 -13,-74 -39,-99 -26,-26 -59,-39 -101,-39 -48,0 -90,18 -124,53 -35,35 -52,78 -52,129 0,42 13,76 39,102 26,25 59,38 100,38zm551 -314l-28 41c-23,-32 -49,-48 -80,-48 -17,0 -32,6 -45,17 -12,11 -18,24 -18,38 0,10 3,21 11,30 7,10 24,23 50,40 38,24 63,46 75,64 12,18 18,39 18,63 0,33 -12,61 -35,83 -23,21 -53,32 -90,32 -49,0 -91,-22 -124,-65l31 -36c29,36 61,54 96,54 19,0 36,-7 51,-21 14,-14 22,-30 22,-48 0,-15 -6,-29 -17,-42 -7,-9 -26,-24 -56,-44 -34,-23 -56,-41 -66,-57 -10,-14 -15,-31 -15,-50 0,-29 11,-54 33,-75 22,-20 50,-31 83,-31 20,0 38,4 55,12 16,8 32,22 49,43zm53 -45l52 0 103 292 170 -292 57 0 -315 540 -56 0 112 -192 -123 -348z"/>
    <g>
     <path class="fil0" d="M3140 1090c21,0 43,-2 66,-6 22,-4 46,-10 69,-18l0 86c-14,6 -35,12 -64,17 -29,6 -59,8 -90,8 -32,0 -61,-4 -90,-12 -28,-8 -52,-21 -73,-39 -22,-18 -38,-41 -51,-70 -12,-28 -18,-63 -18,-104 0,-40 6,-75 17,-105 12,-30 27,-55 47,-75 19,-20 42,-35 67,-45 25,-10 51,-15 78,-15 28,0 54,5 77,13 24,9 44,22 62,40 17,19 30,42 40,71 9,28 14,62 14,101 0,16 0,29 -1,39l-290 0c1,21 6,38 13,53 8,14 18,26 30,35 13,9 27,16 43,20 17,4 35,6 54,6zm-43 -293c-14,0 -26,2 -37,7 -11,5 -20,12 -28,21 -7,8 -14,19 -18,30 -5,12 -8,24 -9,37l174 0c0,-13 -2,-25 -6,-37 -3,-11 -8,-22 -15,-30 -7,-9 -16,-16 -26,-21 -10,-5 -22,-7 -35,-7zm477 132c-10,0 -20,0 -30,0 -10,0 -19,-1 -27,-2l0 239 -112 0 0 -611 176 0c29,0 55,2 77,4 22,3 42,7 59,12 42,13 74,33 97,61 23,28 34,63 34,107 0,29 -6,56 -18,79 -13,24 -31,44 -54,60 -23,17 -52,29 -86,38 -34,9 -72,13 -116,13zm-57 -96c6,1 14,2 24,2 10,1 20,1 31,1 30,0 55,-3 76,-7 20,-5 36,-12 49,-21 12,-8 21,-19 27,-31 5,-12 8,-26 8,-41 0,-17 -4,-33 -12,-46 -9,-13 -23,-23 -43,-31 -11,-3 -24,-6 -40,-8 -15,-1 -35,-2 -57,-2l-63 0 0 184zm696 286l-1 0c-6,6 -14,13 -22,20 -9,6 -19,13 -29,19 -11,5 -24,10 -37,14 -13,3 -28,5 -43,5 -21,0 -41,-3 -59,-10 -19,-6 -34,-16 -47,-28 -13,-12 -24,-27 -31,-45 -8,-17 -11,-37 -11,-58 0,-24 4,-45 12,-64 9,-19 21,-35 37,-48 15,-13 34,-23 56,-30 21,-7 45,-10 71,-10 19,0 37,1 53,3 16,3 30,6 43,9l0 -18c0,-10 -2,-20 -6,-30 -3,-9 -9,-18 -17,-25 -7,-8 -17,-13 -30,-18 -12,-4 -28,-7 -46,-7 -21,0 -43,3 -65,8 -22,4 -46,12 -72,21l0 -84c23,-10 46,-17 71,-22 25,-6 51,-8 79,-9 32,0 60,4 85,12 24,8 44,19 60,33 17,14 29,30 37,49 8,19 12,40 12,62l0 166c0,30 0,55 1,76 1,21 1,39 2,56l-98 0 -5 -47zm-8 -142c-11,-2 -23,-4 -36,-6 -13,-2 -27,-3 -40,-3 -27,0 -48,5 -63,15 -16,11 -23,27 -23,49 0,10 2,18 5,26 4,7 8,14 14,18 6,5 13,9 21,12 8,2 16,3 25,3 11,0 21,-1 31,-4 10,-3 19,-7 27,-11 8,-4 15,-9 22,-15 6,-6 12,-11 17,-16l0 -68zm174 -253l116 0 66 160c25,61 43,106 53,135l2 0c8,-23 24,-65 48,-127l69 -168 117 0 -285 654 -107 0 102 -237 -181 -417zm798 86l-9 0c-33,0 -63,5 -88,15 -25,9 -44,24 -58,45l0 296 -108 0 0 -442 89 0 10 61 2 0c13,-22 31,-40 53,-53 22,-13 49,-20 81,-20 11,0 20,1 28,2l0 96zm374 135c0,-24 -3,-44 -8,-62 -6,-18 -13,-33 -23,-45 -10,-12 -21,-22 -35,-28 -14,-6 -29,-9 -45,-9 -16,0 -30,3 -44,9 -13,6 -25,16 -35,28 -9,12 -17,27 -22,45 -6,18 -9,38 -9,62 0,23 3,44 9,62 5,18 13,33 22,45 10,12 22,21 36,27 13,6 28,9 44,9 16,0 31,-3 44,-9 14,-6 25,-15 35,-27 10,-12 17,-27 23,-45 5,-18 8,-39 8,-62zm112 0c0,35 -5,66 -15,95 -11,28 -25,53 -45,73 -19,21 -43,36 -70,47 -28,12 -58,17 -92,17 -35,0 -66,-5 -93,-17 -28,-11 -51,-26 -70,-47 -20,-20 -34,-45 -45,-73 -10,-29 -15,-60 -15,-95 0,-35 5,-67 16,-95 10,-29 25,-53 44,-74 20,-20 43,-36 70,-47 28,-11 58,-17 92,-17 35,0 66,6 94,17 27,11 51,27 70,47 19,21 34,45 44,74 10,28 15,60 15,95zm100 221l0 -661 108 0 0 661 -108 0zm236 0l0 -661 108 0 0 661 -108 0zm752 -164c14,-48 30,-100 50,-155l105 -292 157 0 0 611 -112 0 0 -309c0,-46 2,-98 6,-158l-4 0c-5,17 -12,37 -19,58 -7,22 -14,43 -22,64l-126 345 -72 0 -126 -345c-8,-21 -15,-42 -22,-64 -7,-21 -13,-41 -18,-58l-4 0c3,56 5,108 5,157l0 310 -112 0 0 -611 156 0 106 291c17,48 34,101 49,156l3 0zm706 117l-2 0c-6,6 -13,13 -22,20 -8,6 -18,13 -29,19 -11,5 -23,10 -37,14 -13,3 -28,5 -43,5 -21,0 -41,-3 -59,-10 -18,-6 -34,-16 -47,-28 -13,-12 -23,-27 -31,-45 -7,-17 -11,-37 -11,-58 0,-24 4,-45 13,-64 8,-19 21,-35 36,-48 16,-13 34,-23 56,-30 21,-7 45,-10 72,-10 19,0 36,1 53,3 16,3 30,6 42,9l0 -18c0,-10 -2,-20 -5,-30 -4,-9 -9,-18 -17,-25 -8,-8 -18,-13 -31,-18 -12,-4 -27,-7 -45,-7 -22,0 -44,3 -66,8 -22,4 -46,12 -71,21l0 -84c22,-10 46,-17 71,-22 25,-6 51,-8 78,-9 32,0 61,4 85,12 24,8 44,19 61,33 16,14 28,30 36,49 8,19 12,40 12,62l0 166c0,30 1,55 1,76 1,21 2,39 2,56l-98 0 -4 -47zm-9 -142c-10,-2 -22,-4 -36,-6 -13,-2 -27,-3 -40,-3 -27,0 -48,5 -63,15 -15,11 -23,27 -23,49 0,10 2,18 5,26 4,7 9,14 14,18 6,5 13,9 21,12 8,2 17,3 25,3 11,0 22,-1 31,-4 10,-3 19,-7 27,-11 8,-4 16,-9 22,-15 7,-6 12,-11 17,-16l0 -68zm328 -192l2 0c7,-9 15,-18 24,-27 10,-9 21,-16 34,-23 12,-7 26,-12 41,-16 15,-4 31,-7 48,-7 16,0 32,2 47,6 15,4 29,9 41,17 13,8 24,18 33,30 10,13 18,27 23,44 3,10 5,20 6,31 1,11 2,24 2,39l0 287 -109 0 0 -271c0,-11 0,-22 -1,-30 -1,-9 -3,-16 -5,-23 -5,-14 -14,-24 -25,-30 -11,-6 -24,-9 -40,-9 -21,0 -41,5 -61,15 -19,10 -36,24 -51,43l0 305 -108 0 0 -442 89 0 10 61zm681 334l-2 0c-6,6 -14,13 -22,20 -9,6 -18,13 -29,19 -11,5 -23,10 -37,14 -13,3 -28,5 -43,5 -21,0 -41,-3 -59,-10 -19,-6 -34,-16 -47,-28 -13,-12 -24,-27 -31,-45 -8,-17 -11,-37 -11,-58 0,-24 4,-45 13,-64 8,-19 20,-35 36,-48 15,-13 34,-23 56,-30 21,-7 45,-10 71,-10 20,0 37,1 53,3 16,3 31,6 43,9l0 -18c0,-10 -2,-20 -6,-30 -3,-9 -9,-18 -16,-25 -8,-8 -18,-13 -31,-18 -12,-4 -28,-7 -45,-7 -22,0 -44,3 -66,8 -22,4 -46,12 -71,21l0 -84c22,-10 45,-17 70,-22 25,-6 51,-8 79,-9 32,0 60,4 85,12 24,8 44,19 60,33 17,14 29,30 37,49 8,19 12,40 12,62l0 166c0,30 0,55 1,76 1,21 1,39 2,56l-98 0 -4 -47zm-9 -142c-11,-2 -22,-4 -36,-6 -13,-2 -27,-3 -40,-3 -27,0 -48,5 -63,15 -15,11 -23,27 -23,49 0,10 2,18 5,26 4,7 8,14 14,18 6,5 13,9 21,12 8,2 16,3 25,3 11,0 21,-1 31,-4 10,-3 19,-7 27,-11 8,-4 15,-9 22,-15 7,-6 12,-11 17,-16l0 -68zm516 200c0,-6 0,-13 1,-22 0,-9 0,-17 1,-23l-1 0c-7,5 -14,11 -23,16 -9,5 -18,10 -29,15 -10,4 -21,8 -34,10 -13,3 -25,4 -38,4 -24,0 -47,-4 -69,-12 -23,-9 -43,-22 -60,-40 -17,-18 -31,-41 -42,-70 -11,-28 -16,-62 -16,-102 0,-40 5,-75 16,-105 11,-30 25,-55 43,-75 18,-20 39,-35 62,-45 24,-10 48,-16 72,-16 28,0 52,6 73,18 21,11 38,26 51,43l2 0 5 -49 95 0 0 450c0,26 -2,48 -6,67 -5,18 -11,35 -19,49 -10,17 -22,31 -38,44 -15,12 -32,23 -51,31 -20,8 -41,14 -64,18 -23,4 -48,6 -73,6 -15,0 -29,0 -43,-1 -14,-1 -28,-3 -40,-5 -12,-2 -23,-4 -34,-7 -10,-2 -18,-5 -25,-7l0 -88c20,6 41,11 63,15 22,3 45,5 69,5 49,0 86,-10 113,-28 26,-19 39,-47 39,-85l0 -11zm-96 -86c11,0 21,-1 31,-4 9,-3 18,-6 27,-11 8,-4 15,-9 22,-14 6,-5 12,-10 16,-15l0 -198c-11,-14 -25,-25 -42,-34 -18,-10 -36,-14 -55,-15 -7,0 -14,1 -21,3 -7,2 -15,5 -23,9 -7,4 -15,10 -21,17 -7,7 -13,16 -18,27 -6,11 -10,24 -13,39 -3,16 -5,33 -5,54 0,22 2,42 7,59 4,18 10,33 19,45 8,12 19,22 32,28 12,7 27,10 44,10zm551 -1c21,0 43,-2 66,-6 23,-4 46,-10 69,-18l0 86c-14,6 -35,12 -64,17 -29,6 -59,8 -90,8 -31,0 -61,-4 -89,-12 -28,-8 -53,-21 -74,-39 -21,-18 -38,-41 -50,-70 -13,-28 -19,-63 -19,-104 0,-40 6,-75 18,-105 11,-30 27,-55 46,-75 20,-20 42,-35 67,-45 25,-10 51,-15 78,-15 28,0 54,5 78,13 23,9 44,22 61,40 17,19 31,42 40,71 10,28 15,62 15,101 -1,16 -1,29 -2,39l-290 0c2,21 6,38 14,53 7,14 17,26 30,35 12,9 26,16 43,20 16,4 34,6 53,6zm-43 -293c-14,0 -26,2 -37,7 -10,5 -20,12 -27,21 -8,8 -14,19 -19,30 -4,12 -7,24 -9,37l174 0c0,-13 -2,-25 -5,-37 -4,-11 -9,-22 -16,-30 -7,-9 -15,-16 -25,-21 -11,-5 -22,-7 -36,-7zm864 99c0,-9 0,-18 -1,-26 0,-8 -1,-16 -3,-22 -3,-13 -10,-24 -19,-32 -10,-8 -24,-13 -42,-13 -9,0 -19,2 -29,4 -10,3 -20,7 -30,12 -10,5 -19,11 -28,18 -9,7 -17,15 -25,24l0 305 -108 0 0 -270c0,-9 0,-18 -1,-26 -1,-8 -2,-16 -3,-22 -3,-13 -10,-24 -19,-32 -10,-8 -24,-13 -42,-13 -9,0 -19,2 -29,4 -10,3 -20,7 -30,12 -10,5 -19,11 -28,18 -9,7 -17,15 -25,24l0 305 -108 0 0 -442 90 0 10 61 1 0c7,-9 15,-18 25,-27 9,-9 21,-16 33,-23 12,-7 26,-12 40,-16 15,-4 31,-7 47,-7 30,0 56,7 79,20 23,13 41,33 53,60l2 0c9,-11 18,-22 29,-32 10,-10 22,-18 35,-25 13,-7 26,-13 41,-17 15,-3 31,-6 47,-6 32,1 59,7 80,20 22,13 38,31 50,54 3,5 5,12 7,18 3,7 4,15 6,23 1,9 2,19 3,29 0,10 1,22 1,36l0 274 -109 0 0 -270zm455 194c21,0 43,-2 66,-6 23,-4 46,-10 69,-18l0 86c-14,6 -35,12 -64,17 -29,6 -59,8 -90,8 -31,0 -61,-4 -89,-12 -28,-8 -53,-21 -74,-39 -21,-18 -38,-41 -50,-70 -13,-28 -19,-63 -19,-104 0,-40 6,-75 17,-105 12,-30 28,-55 47,-75 20,-20 42,-35 67,-45 25,-10 51,-15 78,-15 28,0 54,5 78,13 23,9 44,22 61,40 17,19 31,42 40,71 10,28 15,62 15,101 -1,16 -1,29 -2,39l-290 0c2,21 6,38 14,53 7,14 17,26 30,35 12,9 26,16 43,20 16,4 34,6 53,6zm-43 -293c-14,0 -26,2 -37,7 -10,5 -20,12 -27,21 -8,8 -14,19 -19,30 -5,12 -7,24 -9,37l174 0c0,-13 -2,-25 -5,-37 -4,-11 -9,-22 -16,-30 -7,-9 -15,-16 -25,-21 -11,-5 -23,-7 -36,-7zm394 -12l1 0c7,-9 15,-18 25,-27 9,-9 20,-16 33,-23 12,-7 26,-12 41,-16 15,-4 31,-7 48,-7 17,0 32,2 47,6 15,4 29,9 42,17 12,8 23,18 33,30 9,13 17,27 22,44 3,10 5,20 6,31 2,11 2,24 2,39l0 287 -108 0 0 -271c0,-11 -1,-22 -2,-30 -1,-9 -2,-16 -5,-23 -5,-14 -14,-24 -25,-30 -11,-6 -24,-9 -40,-9 -21,0 -41,5 -60,15 -20,10 -37,24 -52,43l0 305 -108 0 0 -442 90 0 10 61zm689 380c-12,4 -27,7 -43,9 -17,2 -33,3 -48,3 -37,0 -67,-6 -91,-18 -24,-12 -40,-29 -50,-52 -7,-16 -11,-38 -11,-65l0 -229 -82 0 0 -89 82 0 0 -124 109 0 0 124 128 0 0 89 -128 0 0 215c0,17 3,29 8,37 9,14 27,21 54,21 13,0 25,0 37,-2 12,-3 24,-5 35,-8l0 89zm568 -175c0,-15 -4,-28 -11,-37 -8,-10 -18,-18 -31,-24 -13,-6 -28,-11 -44,-15 -16,-3 -34,-7 -51,-11 -24,-5 -47,-11 -68,-18 -22,-7 -41,-17 -57,-30 -17,-13 -30,-29 -39,-48 -10,-20 -15,-44 -15,-73 0,-33 6,-61 17,-85 11,-23 27,-43 46,-59 19,-16 42,-27 68,-35 26,-8 56,-12 88,-12 33,0 65,3 98,10 33,6 61,14 85,24l0 96c-31,-12 -62,-21 -91,-27 -29,-6 -56,-8 -82,-8 -37,0 -65,6 -85,20 -20,13 -30,33 -30,60 0,16 3,28 10,39 6,10 15,18 26,24 12,7 25,12 39,16 15,4 30,8 47,11 25,6 50,12 73,19 24,7 45,17 63,30 18,13 33,29 43,50 11,21 16,47 16,79 0,33 -6,61 -18,85 -12,24 -30,44 -52,60 -22,15 -49,27 -81,35 -32,7 -67,11 -105,11 -34,0 -66,-3 -98,-10 -33,-6 -59,-15 -81,-27l0 -95c31,13 60,23 89,29 28,6 58,9 88,9 18,0 35,-2 52,-5 17,-2 32,-7 46,-14 14,-7 25,-17 33,-29 8,-12 12,-27 12,-45zm171 -266l116 0 66 160c25,61 43,106 53,135l2 0c8,-23 24,-65 48,-127l69 -168 117 0 -284 654 -107 0 101 -237 -181 -417zm731 314c0,-10 -2,-18 -8,-24 -5,-6 -12,-11 -21,-15 -9,-4 -19,-8 -30,-11 -12,-3 -24,-6 -36,-9 -16,-4 -31,-9 -46,-15 -14,-5 -27,-13 -38,-22 -12,-9 -20,-21 -27,-34 -7,-14 -10,-31 -10,-51 0,-25 5,-46 13,-64 9,-18 21,-33 36,-45 15,-12 33,-21 53,-27 20,-6 41,-9 63,-9 27,0 53,3 76,7 24,4 46,10 65,17l0 88c-10,-4 -21,-6 -32,-9 -11,-3 -22,-6 -34,-8 -11,-2 -22,-3 -34,-5 -11,-1 -22,-2 -32,-2 -13,0 -23,2 -32,4 -9,2 -16,6 -22,10 -5,4 -9,8 -12,14 -2,5 -3,11 -3,16 0,10 3,19 8,25 5,6 13,12 22,16 9,4 19,7 30,9 10,3 20,5 30,8 15,4 30,8 45,13 15,5 29,13 41,22 12,9 22,21 30,36 8,15 12,33 12,56 0,25 -5,47 -14,66 -10,18 -23,34 -40,46 -17,12 -37,21 -60,27 -24,6 -50,9 -78,9 -28,0 -53,-2 -76,-6 -22,-5 -41,-10 -55,-17l0 -87c24,9 45,14 65,18 21,3 39,4 57,4 13,0 26,-1 37,-3 12,-2 22,-5 30,-9 8,-4 15,-10 20,-16 5,-7 7,-14 7,-23zm471 127c-12,4 -27,7 -44,9 -17,2 -32,3 -47,3 -37,0 -68,-6 -91,-18 -24,-12 -41,-29 -50,-52 -7,-16 -11,-38 -11,-65l0 -229 -82 0 0 -89 82 0 0 -124 109 0 0 124 127 0 0 89 -127 0 0 215c0,17 2,29 7,37 9,14 28,21 55,21 12,0 25,0 37,-2 12,-3 24,-5 35,-8l0 89z"/>
     <path class="fil0" d="M13988 1090c21,0 43,-2 66,-6 23,-4 46,-10 69,-18l0 86c-13,6 -35,12 -64,17 -29,6 -59,8 -90,8 -31,0 -61,-4 -89,-12 -28,-8 -53,-21 -74,-39 -21,-18 -38,-41 -50,-70 -12,-28 -19,-63 -19,-104 0,-40 6,-75 18,-105 11,-30 27,-55 46,-75 20,-20 42,-35 67,-45 25,-10 52,-15 78,-15 28,0 54,5 78,13 23,9 44,22 61,40 17,19 31,42 40,71 10,28 15,62 15,101 0,16 -1,29 -2,39l-290 0c2,21 6,38 14,53 8,14 17,26 30,35 12,9 27,16 43,20 16,4 34,6 53,6zm-43 -293c-14,0 -26,2 -37,7 -10,5 -19,12 -27,21 -8,8 -14,19 -19,30 -4,12 -7,24 -9,37l174 0c0,-13 -2,-25 -5,-37 -4,-11 -9,-22 -16,-30 -6,-9 -15,-16 -25,-21 -10,-5 -22,-7 -36,-7zm864 99c0,-9 0,-18 0,-26 -1,-8 -2,-16 -4,-22 -3,-13 -10,-24 -19,-32 -10,-8 -24,-13 -41,-13 -10,0 -20,2 -30,4 -10,3 -20,7 -30,12 -9,5 -19,11 -28,18 -9,7 -17,15 -24,24l0 305 -109 0 0 -270c0,-9 0,-18 -1,-26 0,-8 -1,-16 -3,-22 -3,-13 -10,-24 -19,-32 -10,-8 -24,-13 -42,-13 -9,0 -19,2 -29,4 -10,3 -20,7 -30,12 -10,5 -19,11 -28,18 -9,7 -17,15 -24,24l0 305 -109 0 0 -442 90 0 10 61 2 0c6,-9 14,-18 24,-27 10,-9 21,-16 33,-23 12,-7 26,-12 41,-16 15,-4 30,-7 47,-7 29,0 55,7 78,20 24,13 41,33 54,60l1 0c9,-11 19,-22 29,-32 11,-10 22,-18 35,-25 13,-7 27,-13 41,-17 15,-3 31,-6 48,-6 31,1 58,7 79,20 22,13 38,31 50,54 3,5 6,12 8,18 2,7 4,15 5,23 1,9 2,19 3,29 1,10 1,22 1,36l0 274 -109 0 0 -270z"/>
    </g>
   </g>
   <g>
    <path class="fil0" d="M827 2198l-254 -146c-231,-134 -396,-324 -494,-571 -126,-313 -101,-622 74,-926 180,-312 443,-494 786,-544 242,-36 489,16 739,158l-953 1650 240 139 -138 240zm500 -1889c-144,-41 -270,-52 -380,-36 -110,18 -216,63 -320,135 -103,73 -186,164 -249,273 -104,181 -136,368 -95,564 29,144 113,288 253,433l791 -1369z"/>
    <path class="fil0" d="M1975 340c231,133 396,324 494,571 126,313 101,622 -74,925 -180,313 -443,494 -786,544 -173,27 -349,7 -526,-58l-424 735 -203 -117 414 -717 952 -1650 153 -233zm-491 1287l0 0 -263 455c144,41 270,53 380,36 110,-17 216,-62 319,-135 104,-72 187,-163 250,-272 104,-181 136,-369 95,-565 -29,-143 -113,-287 -253,-433l-528 914z"/>
   </g>
  </g>
 </g>
</svg>
