<?xml version="1.0" encoding="utf-8"?>
<!-- Generator: Adobe Illustrator 18.0.0, SVG Export Plug-In . SVG Version: 6.00 Build 0)  -->
<!DOCTYPE svg PUBLIC "-//W3C//DTD SVG 1.1//EN" "http://www.w3.org/Graphics/SVG/1.1/DTD/svg11.dtd">
<svg version="1.1" id="Layer_1" xmlns="http://www.w3.org/2000/svg" xmlns:xlink="http://www.w3.org/1999/xlink" x="0px" y="0px"
	 viewBox="0 0 46.5 46.5" enable-background="new 0 0 46.5 46.5" xml:space="preserve">
<path fill="#165397" d="M44.5,24.3c0,6.7-3,13.1-8.3,17.3c-1,0.8-2,1.5-3,2.1c-0.6,0.4-1.3,0.7-2,1c-2.3,1-4.7,1.6-7.1,1.8
	c-0.6,0.1-1.2,0.1-1.8,0.1c-1.2,0-2.4-0.1-3.6-0.3c-0.4-0.1-0.8-0.1-1.3-0.2c-0.7-0.2-1.4-0.4-2.1-0.6c-2.9-1-5.5-2.5-7.8-4.5
	c-0.6-0.5-1.1-1.1-1.7-1.6C-2.5,30.1-1.8,16,7.3,7.8c9.1-8.2,23.2-7.5,31.4,1.6C42.5,13.4,44.5,18.7,44.5,24.3"/>
<path fill="#F6BCBF" d="M24.6,27.5c0,0-1.6,4.6-0.6,5.3c1,0.7-3.4,6.5-3.4,6.5L15.3,38l2.9-4.9c0,0,0.4-4.9,0.4-5.6
	S24.6,27.5,24.6,27.5"/>
<path opacity="0.1" fill="#0F0D09" d="M24.6,27.5c0,0-1.6,4.6-0.6,5.3c1,0.7-3.4,6.5-3.4,6.5L15.3,38l2.9-4.9c0,0,0.4-4.9,0.4-5.6
	S24.6,27.5,24.6,27.5"/>
<path fill-rule="evenodd" clip-rule="evenodd" fill="#2F2E41" d="M29.8,26c0,3.9-3.6,3.3-8.1,3.3s-8.1,0.6-8.1-3.3
	c0-3.9,1.8-10.9,8.1-10.9C28.3,15,29.8,22,29.8,26"/>
<path fill="#F6BCBF" d="M27.1,23.8c0-3-2.5-5.5-5.5-5.5s-5.5,2.5-5.5,5.5c0,3,2.5,5.5,5.5,5.5S27.1,26.8,27.1,23.8"/>
<path fill-rule="evenodd" clip-rule="evenodd" fill="#2F2E41" d="M15.3,23.3L15.3,23.3h2.2l1-2.7l0.2,2.7h1l0.6-1.6l0.1,1.6H28
	c0-3.2-2.6-5.8-5.8-5.8h-1.1C17.9,17.5,15.3,20.1,15.3,23.3"/>
<path fill="#DBD6E9" d="M37.1,40.8c-0.3,0.2-0.6,0.5-0.8,0.7c-1,0.8-2,1.5-3,2.1c-0.6,0.4-1.3,0.7-2,1c-2.3,1-4.7,1.6-7.1,1.8
	c-0.6,0.1-1.2,0.1-1.8,0.1c-1.2,0-2.4-0.1-3.6-0.3c-0.4-0.1-0.8-0.1-1.3-0.2c-0.7-0.2-1.4-0.4-2.1-0.6c-2.9-1-5.5-2.5-7.8-4.5
	c-0.1-0.1-0.2-0.2-0.3-0.3l1.9-4.4c0.2-0.7,0.7-1.3,1.3-1.6c0.8-0.9,2-1.6,3.3-1.7l15-1.9c0.2,0,0.5,0,0.7,0c1.3,0,2.6,0.5,3.5,1.4
	c0.6,0.4,1.1,0.9,1.3,1.6L37.1,40.8z"/>
</svg>
