<?xml version="1.0" encoding="UTF-8"?>
<!DOCTYPE svg PUBLIC "-//W3C//DTD SVG 1.1//EN" "http://www.w3.org/Graphics/SVG/1.1/DTD/svg11.dtd">
<!-- Creator: CorelDRAW X7 -->
<svg xmlns="http://www.w3.org/2000/svg" xml:space="preserve" width="36.8267mm" height="28.8458mm" version="1.1" style="shape-rendering:geometricPrecision; text-rendering:geometricPrecision; image-rendering:optimizeQuality; fill-rule:evenodd; clip-rule:evenodd"
viewBox="0 0 28293 22162"
 xmlns:xlink="http://www.w3.org/1999/xlink">
 <defs>
  <style type="text/css">
   <![CDATA[
    .fil0 {fill:#FEFEFE;fill-rule:nonzero}
   ]]>
  </style>
 </defs>
 <g id="Layer_x0020_1">
  <metadata id="CorelCorpID_0Corel-Layer"/>
  <g id="_1720332484448">
   <g>
    <path class="fil0" d="M11311 13931l-1609 -928c-1463,-845 -2509,-2054 -3131,-3619 -795,-1984 -639,-3942 471,-5863 1142,-1980 2805,-3131 4979,-3450 1538,-231 3100,100 4688,997l-6039 10460 1521 878 -880 1525zm3169 -11971c-911,-259 -1711,-333 -2407,-227 -698,111 -1370,395 -2024,856 -653,460 -1180,1037 -1578,1728 -661,1144 -864,2334 -608,3576 186,911 722,1821 1607,2744l5010 -8677z"/>
    <path class="fil0" d="M18591 2155c1463,845 2509,2054 3131,3619 795,1984 639,3942 -471,5863 -1143,1980 -2805,3131 -4979,3450 -1100,165 -2212,43 -3337,-368l-2688 4655 -1285 -742 2622 -4543 6039 -10459 968 -1475zm-3113 8158l1 0 -1666 2884c911,260 1711,334 2407,228 698,-111 1370,-395 2024,-856 653,-460 1180,-1038 1578,-1728 661,-1144 864,-2334 608,-3576 -186,-911 -722,-1821 -1607,-2744l-3345 5792z"/>
   </g>
   <path class="fil0" d="M0 20184l315 0c170,0 292,16 368,47 75,32 134,83 178,153 43,70 65,154 65,252 0,109 -29,199 -86,271 -57,72 -134,122 -232,151 -57,16 -162,24 -313,24l0 659 -295 0 0 -1557zm295 609l95 0c75,0 126,-5 156,-15 29,-11 52,-29 69,-53 16,-25 25,-54 25,-89 0,-61 -24,-105 -71,-132 -34,-21 -97,-31 -190,-31l-84 0 0 320zm1741 -203l288 0 0 1151 -288 0 0 -123c-56,54 -113,92 -170,116 -57,23 -118,35 -185,35 -149,0 -277,-57 -386,-173 -109,-114 -163,-258 -163,-429 0,-177 53,-322 158,-436 105,-113 232,-170 383,-170 69,0 134,14 195,39 60,26 116,65 168,116l0 -126zm-304 236c-90,0 -164,31 -223,95 -59,63 -89,144 -89,242 0,100 30,181 91,246 60,63 134,96 222,96 91,0 166,-32 226,-95 60,-63 90,-146 90,-248 0,-100 -30,-181 -90,-243 -60,-62 -136,-93 -227,-93zm755 -236l296 0 298 721 330 -721 296 0 -720 1572 -296 0 234 -506 -438 -1066zm1319 0l249 0 0 146c27,-57 62,-100 106,-130 45,-30 93,-45 145,-45 38,0 77,10 118,30l-90 249c-34,-17 -62,-25 -83,-25 -44,0 -82,28 -112,83 -31,55 -46,162 -46,323l1 56 0 464 -288 0 0 -1151zm1302 -29c109,0 211,28 307,82 96,54 170,127 224,220 54,93 81,194 81,301 0,109 -27,210 -81,304 -54,94 -128,168 -221,221 -94,53 -197,80 -309,80 -165,0 -307,-58 -423,-175 -118,-118 -176,-260 -176,-428 0,-179 66,-329 198,-448 116,-104 249,-157 400,-157zm4 272c-90,0 -165,31 -224,93 -60,62 -90,142 -90,239 0,100 30,181 89,242 59,62 133,93 224,93 91,0 166,-31 226,-94 60,-62 90,-143 90,-241 0,-99 -30,-179 -88,-240 -59,-62 -135,-92 -227,-92zm812 -688l288 0 0 1596 -288 0 0 -1596zm520 0l288 0 0 1596 -288 0 0 -1596zm2006 251l-219 194c-77,-107 -156,-161 -236,-161 -39,0 -71,11 -95,31 -25,21 -37,45 -37,71 0,26 8,51 26,74 24,31 97,97 218,200 113,94 182,154 206,179 60,60 103,118 128,173 25,56 37,116 37,182 0,128 -44,233 -132,316 -88,83 -204,125 -346,125 -111,0 -207,-27 -290,-81 -82,-55 -153,-140 -212,-256l250 -151c75,137 162,206 259,206 51,0 94,-15 129,-44 35,-30 52,-64 52,-103 0,-35 -13,-70 -39,-106 -26,-35 -84,-89 -174,-162 -169,-138 -279,-244 -328,-319 -50,-76 -75,-150 -75,-225 0,-108 41,-201 123,-278 83,-77 184,-116 305,-116 78,0 152,18 222,54 70,36 146,102 228,197zm1430 851l-927 0c14,82 49,147 107,196 58,48 132,73 222,73 107,0 200,-38 277,-114l242 114c-60,86 -133,150 -217,191 -85,42 -185,62 -301,62 -180,0 -326,-57 -440,-170 -113,-114 -169,-256 -169,-427 0,-175 56,-321 169,-437 114,-116 255,-174 426,-174 181,0 329,58 442,174 114,115 170,267 170,457l-1 55zm-287 -226c-19,-63 -57,-114 -113,-153 -56,-40 -121,-59 -196,-59 -80,0 -151,22 -212,66 -38,28 -73,76 -106,146l627 0zm456 -431l249 0 0 146c27,-57 62,-100 106,-130 45,-30 93,-45 145,-45 38,0 77,10 118,30l-90 249c-34,-17 -61,-25 -83,-25 -44,0 -82,28 -112,83 -31,55 -46,162 -46,323l1 56 0 464 -288 0 0 -1151zm638 0l295 0 290 679 293 -679 293 0 -496 1151 -184 0 -491 -1151zm1451 -473c51,0 94,18 130,55 37,36 55,81 55,133 0,51 -18,95 -54,131 -36,36 -79,54 -129,54 -51,0 -95,-19 -131,-55 -37,-37 -55,-82 -55,-135 0,-50 18,-93 54,-129 36,-36 79,-54 130,-54zm-145 473l288 0 0 1151 -288 0 0 -1151zm1678 234l-241 132c-45,-47 -89,-80 -133,-98 -44,-19 -96,-28 -155,-28 -108,0 -196,32 -262,96 -67,65 -101,147 -101,247 0,98 33,177 97,239 64,62 148,93 253,93 129,0 229,-44 301,-133l228 156c-124,161 -298,241 -523,241 -203,0 -362,-60 -476,-179 -115,-120 -172,-260 -172,-420 0,-112 28,-214 83,-308 56,-93 134,-167 234,-220 100,-54 211,-81 335,-81 115,0 217,23 308,69 91,45 166,110 224,194zm1413 423l-927 0c13,82 49,147 107,196 57,48 132,73 221,73 108,0 200,-38 277,-114l242 114c-60,86 -132,150 -217,191 -84,42 -184,62 -300,62 -180,0 -327,-57 -440,-170 -113,-114 -170,-256 -170,-427 0,-175 57,-321 170,-437 113,-116 255,-174 426,-174 181,0 328,58 442,174 113,115 170,267 170,457l-1 55zm-288 -226c-19,-63 -56,-114 -112,-153 -57,-40 -122,-59 -196,-59 -81,0 -151,22 -212,66 -38,28 -74,76 -106,146l626 0zm1228 -268l-179 179c-72,-72 -138,-108 -197,-108 -32,0 -57,7 -76,20 -18,14 -27,31 -27,51 0,16 6,30 17,43 12,13 41,31 86,54l106 52c111,55 188,111 229,168 42,57 63,123 63,200 0,102 -38,187 -113,255 -75,68 -176,102 -303,102 -167,0 -302,-65 -402,-196l178 -194c34,39 74,71 120,96 45,24 86,36 121,36 38,0 69,-9 93,-27 23,-19 35,-40 35,-64 0,-44 -42,-87 -127,-129l-97 -49c-186,-94 -279,-211 -279,-351 0,-91 35,-169 105,-233 70,-64 159,-97 269,-97 74,0 144,17 211,50 65,33 121,80 167,142zm1038 -569l287 0 363 1086 364 -1086 286 0 261 1557 -286 0 -166 -983 -329 983 -262 0 -328 -983 -170 983 -289 0 269 -1557zm2621 406l289 0 0 1151 -289 0 0 -123c-56,54 -113,92 -170,116 -56,23 -118,35 -184,35 -150,0 -278,-57 -387,-173 -109,-114 -163,-258 -163,-429 0,-177 53,-322 158,-436 105,-113 233,-170 383,-170 69,0 134,14 195,39 60,26 116,65 168,116l0 -126zm-304 236c-89,0 -164,31 -223,95 -59,63 -89,144 -89,242 0,100 30,181 91,246 60,63 134,96 222,96 91,0 167,-32 226,-95 60,-63 90,-146 90,-248 0,-100 -30,-181 -90,-243 -59,-62 -135,-93 -227,-93zm1736 -681l288 0 0 1596 -288 0 0 -123c-57,54 -114,92 -170,116 -57,23 -119,35 -185,35 -149,0 -278,-57 -387,-173 -108,-114 -163,-258 -163,-429 0,-177 53,-322 158,-436 105,-113 233,-170 383,-170 70,0 134,14 195,39 61,26 117,65 169,117l0 -572zm-304 681c-90,0 -164,31 -223,95 -60,63 -89,144 -89,242 0,100 30,181 90,246 61,63 135,96 223,96 90,0 166,-32 226,-95 60,-63 90,-146 90,-248 0,-100 -30,-181 -90,-243 -60,-62 -136,-93 -227,-93zm2035 421l-927 0c14,82 49,147 107,196 58,48 132,73 222,73 107,0 200,-38 277,-114l242 114c-60,86 -133,150 -217,191 -85,42 -185,62 -301,62 -180,0 -326,-57 -440,-170 -113,-114 -169,-256 -169,-427 0,-175 56,-321 169,-437 114,-116 255,-174 426,-174 181,0 329,58 442,174 114,115 170,267 170,457l-1 55zm-287 -226c-19,-63 -57,-114 -113,-153 -56,-40 -121,-59 -196,-59 -80,0 -151,22 -212,66 -38,28 -73,76 -106,146l627 0zm1164 -837l850 0 0 291 -555 0 0 279 555 0 0 287 -555 0 0 409 555 0 0 291 -850 0 0 -1557zm1945 406l289 0 0 1151 -289 0 0 -123c-56,54 -113,92 -170,116 -56,23 -118,35 -184,35 -150,0 -278,-57 -387,-173 -109,-114 -163,-258 -163,-429 0,-177 53,-322 158,-436 105,-113 233,-170 383,-170 69,0 134,14 195,39 60,26 116,65 168,116l0 -126zm-304 236c-89,0 -164,31 -223,95 -59,63 -89,144 -89,242 0,100 30,181 91,246 60,63 134,96 222,96 91,0 167,-32 226,-95 60,-63 90,-146 90,-248 0,-100 -30,-181 -90,-243 -59,-62 -135,-93 -227,-93zm1588 -73l-178 179c-73,-72 -138,-108 -198,-108 -32,0 -57,7 -76,20 -18,14 -27,31 -27,51 0,16 6,30 17,43 12,13 41,31 87,54l105 52c111,55 188,111 230,168 41,57 62,123 62,200 0,102 -38,187 -113,255 -75,68 -176,102 -302,102 -168,0 -303,-65 -403,-196l178 -194c34,39 74,71 120,96 46,24 86,36 122,36 38,0 69,-9 92,-27 23,-19 35,-40 35,-64 0,-44 -42,-87 -126,-129l-98 -49c-186,-94 -279,-211 -279,-351 0,-91 35,-169 105,-233 70,-64 160,-97 269,-97 75,0 145,17 211,50 66,33 121,80 167,142zm121 -163l296 0 298 721 331 -721 295 0 -720 1572 -296 0 235 -506 -439 -1066z"/>
  </g>
 </g>
</svg>
